<?xml version="1.0" encoding="UTF-8" standalone="no"?><!DOCTYPE svg PUBLIC "-//W3C//DTD SVG 1.1//EN" "http://www.w3.org/Graphics/SVG/1.1/DTD/svg11.dtd"><svg width="100%" height="100%" viewBox="0 0 512 512" version="1.1" xmlns="http://www.w3.org/2000/svg" xmlns:xlink="http://www.w3.org/1999/xlink" xml:space="preserve" xmlns:serif="http://www.serif.com/" style="fill-rule:evenodd;clip-rule:evenodd;stroke-linejoin:round;stroke-miterlimit:1.41421;"><path d="M91.833,162c47.925,0 86.834,38.871 86.834,86.75c0,47.879 -38.909,86.75 -86.834,86.75c-47.924,0 -86.833,-38.871 -86.833,-86.75c0,-47.879 38.909,-86.75 86.833,-86.75Zm0,19.953c36.902,0 66.862,29.93 66.862,66.797c0,36.867 -29.96,66.797 -66.862,66.797c-36.902,0 -66.861,-29.93 -66.861,-66.797c0,-36.867 29.959,-66.797 66.861,-66.797Z"/><path d="M200.833,162c47.925,0 86.834,38.871 86.834,86.75c0,47.879 -38.909,86.75 -86.834,86.75c-47.924,0 -86.833,-38.871 -86.833,-86.75c0,-47.879 38.909,-86.75 86.833,-86.75Zm0,19.953c36.902,0 66.862,29.93 66.862,66.797c0,36.867 -29.96,66.797 -66.862,66.797c-36.902,0 -66.861,-29.93 -66.861,-66.797c0,-36.867 29.959,-66.797 66.861,-66.797Z"/><path d="M309.833,162c47.925,0 86.834,38.871 86.834,86.75c0,47.879 -38.909,86.75 -86.834,86.75c-47.924,0 -86.833,-38.871 -86.833,-86.75c0,-47.879 38.909,-86.75 86.833,-86.75Zm0,19.953c36.902,0 66.862,29.93 66.862,66.797c0,36.867 -29.96,66.797 -66.862,66.797c-36.902,0 -66.861,-29.93 -66.861,-66.797c0,-36.867 29.959,-66.797 66.861,-66.797Z"/><path d="M417.833,162c47.925,0 86.834,38.871 86.834,86.75c0,47.879 -38.909,86.75 -86.834,86.75c-47.924,0 -86.833,-38.871 -86.833,-86.75c0,-47.879 38.909,-86.75 86.833,-86.75Zm0,19.953c36.902,0 66.862,29.93 66.862,66.797c0,36.867 -29.96,66.797 -66.862,66.797c-36.902,0 -66.861,-29.93 -66.861,-66.797c0,-36.867 29.959,-66.797 66.861,-66.797Z"/></svg>