<?xml version="1.0" encoding="UTF-8" standalone="no"?><!DOCTYPE svg PUBLIC "-//W3C//DTD SVG 1.1//EN" "http://www.w3.org/Graphics/SVG/1.1/DTD/svg11.dtd"><svg width="100%" height="100%" viewBox="0 0 512 512" version="1.1" xmlns="http://www.w3.org/2000/svg" xmlns:xlink="http://www.w3.org/1999/xlink" xml:space="preserve" xmlns:serif="http://www.serif.com/" style="fill-rule:evenodd;clip-rule:evenodd;stroke-linejoin:round;stroke-miterlimit:1.41421;"><path d="M254.333,8.333c136.323,0 247,110.677 247,247c0,136.323 -110.677,247 -247,247c-136.323,0 -247,-110.677 -247,-247c0,-136.323 110.677,-247 247,-247Zm0,25.141c122.448,0 221.86,99.412 221.86,221.859c0,122.448 -99.412,221.86 -221.86,221.86c-122.447,0 -221.859,-99.412 -221.859,-221.86c0,-122.447 99.412,-221.859 221.859,-221.859Z"/><path d="M249.054,22.579c0.375,-2.628 2.625,-4.579 5.279,-4.579c2.654,0 4.904,1.951 5.28,4.579l30.419,212.81l169.09,132.749c2.087,1.639 2.652,4.564 1.325,6.862c-1.327,2.298 -4.142,3.271 -6.605,2.283l-199.509,-80.061l-199.509,80.061c-2.463,0.988 -5.278,0.015 -6.605,-2.283c-1.327,-2.298 -0.762,-5.223 1.326,-6.862l169.089,-132.749l30.42,-212.81Z"/></svg>