<?xml version="1.0" encoding="UTF-8" standalone="no"?>
<!DOCTYPE svg PUBLIC "-//W3C//DTD SVG 1.1//EN" "http://www.w3.org/Graphics/SVG/1.1/DTD/svg11.dtd">
<svg width="100%" height="100%" viewBox="0 0 512 256" version="1.1" xmlns="http://www.w3.org/2000/svg" xmlns:xlink="http://www.w3.org/1999/xlink" xml:space="preserve" xmlns:serif="http://www.serif.com/" style="fill-rule:evenodd;clip-rule:evenodd;stroke-linejoin:round;stroke-miterlimit:2;">
    <g transform="matrix(1,0,0,1,0,-128)">
        <path d="M91.833,162C139.758,162 178.667,200.871 178.667,248.75C178.667,296.629 139.758,335.5 91.833,335.5C43.909,335.5 5,296.629 5,248.75C5,200.871 43.909,162 91.833,162ZM91.833,181.953C128.735,181.953 158.695,211.883 158.695,248.75C158.695,285.617 128.735,315.547 91.833,315.547C54.931,315.547 24.972,285.617 24.972,248.75C24.972,211.883 54.931,181.953 91.833,181.953Z"/>
    </g>
    <g transform="matrix(1,0,0,1,0,-128)">
        <path d="M200.833,162C248.758,162 287.667,200.871 287.667,248.75C287.667,296.629 248.758,335.5 200.833,335.5C152.909,335.5 114,296.629 114,248.75C114,200.871 152.909,162 200.833,162ZM200.833,181.953C237.735,181.953 267.695,211.883 267.695,248.75C267.695,285.617 237.735,315.547 200.833,315.547C163.931,315.547 133.972,285.617 133.972,248.75C133.972,211.883 163.931,181.953 200.833,181.953Z"/>
    </g>
    <g transform="matrix(1,0,0,1,0,-128)">
        <path d="M309.833,162C357.758,162 396.667,200.871 396.667,248.75C396.667,296.629 357.758,335.5 309.833,335.5C261.909,335.5 223,296.629 223,248.75C223,200.871 261.909,162 309.833,162ZM309.833,181.953C346.735,181.953 376.695,211.883 376.695,248.75C376.695,285.617 346.735,315.547 309.833,315.547C272.931,315.547 242.972,285.617 242.972,248.75C242.972,211.883 272.931,181.953 309.833,181.953Z"/>
    </g>
    <g transform="matrix(1,0,0,1,0,-128)">
        <path d="M417.833,162C465.758,162 504.667,200.871 504.667,248.75C504.667,296.629 465.758,335.5 417.833,335.5C369.909,335.5 331,296.629 331,248.75C331,200.871 369.909,162 417.833,162ZM417.833,181.953C454.735,181.953 484.695,211.883 484.695,248.75C484.695,285.617 454.735,315.547 417.833,315.547C380.931,315.547 350.972,285.617 350.972,248.75C350.972,211.883 380.931,181.953 417.833,181.953Z"/>
    </g>
</svg>
