<?xml version="1.0" encoding="UTF-8" standalone="no"?><!DOCTYPE svg PUBLIC "-//W3C//DTD SVG 1.1//EN" "http://www.w3.org/Graphics/SVG/1.1/DTD/svg11.dtd"><svg width="100%" height="100%" viewBox="0 0 512 512" version="1.1" xmlns="http://www.w3.org/2000/svg" xmlns:xlink="http://www.w3.org/1999/xlink" xml:space="preserve" xmlns:serif="http://www.serif.com/" style="fill-rule:evenodd;clip-rule:evenodd;stroke-linecap:round;stroke-linejoin:round;stroke-miterlimit:1.5;"><circle cx="256.667" cy="257" r="146.667" style="fill:none;stroke:#000;stroke-width:14px;"/><circle cx="256.667" cy="257" r="146.667" style="fill:#fff;"/><clipPath id="_clip1"><circle cx="256.667" cy="257" r="146.667"/></clipPath><g clip-path="url(#_clip1)"><rect x="98.667" y="99" width="161.333" height="161.333"/><rect x="254.667" y="255" width="161.333" height="161.333"/></g><path d="M257.333,16.333c133.196,0 241.334,108.138 241.334,241.334c0,133.195 -108.138,241.333 -241.334,241.333c-133.195,0 -241.333,-108.138 -241.333,-241.333c0,-133.196 108.138,-241.334 241.333,-241.334Zm0,82.47c87.679,0 158.864,71.185 158.864,158.864c0,87.679 -71.185,158.863 -158.864,158.863c-87.679,0 -158.863,-71.184 -158.863,-158.863c0,-87.679 71.184,-158.864 158.863,-158.864Z" style="fill:none;stroke:#fff;stroke-width:14px;"/><path d="M257.333,16.333c133.196,0 241.334,108.138 241.334,241.334c0,133.195 -108.138,241.333 -241.334,241.333c-133.195,0 -241.333,-108.138 -241.333,-241.333c0,-133.196 108.138,-241.334 241.333,-241.334Zm0,82.47c87.679,0 158.864,71.185 158.864,158.864c0,87.679 -71.185,158.863 -158.864,158.863c-87.679,0 -158.863,-71.184 -158.863,-158.863c0,-87.679 71.184,-158.864 158.863,-158.864Z"/><g><path d="M75.292,112.272l15.354,-16.199c3.3,-3.482 6.399,-6.341 9.297,-8.577c2.897,-2.236 5.64,-3.803 8.229,-4.702c2.588,-0.9 5.048,-1.095 7.38,-0.586c2.331,0.51 4.58,1.791 6.746,3.843c1.303,1.236 2.344,2.581 3.12,4.036c0.777,1.455 1.25,2.956 1.418,4.505c0.169,1.549 0.046,3.121 -0.368,4.716c-0.414,1.596 -1.173,3.164 -2.275,4.706l0.316,0.299c1.567,-1.149 3.156,-2.098 4.765,-2.848c1.609,-0.75 3.253,-1.18 4.933,-1.288c1.679,-0.109 3.395,0.176 5.147,0.855c1.752,0.678 3.532,1.874 5.341,3.588c2.102,1.993 3.56,4.214 4.374,6.661c0.814,2.448 1.01,5.041 0.59,7.78c-0.421,2.739 -1.444,5.577 -3.07,8.514c-1.627,2.938 -3.851,5.895 -6.673,8.872l-18.51,19.531l-46.114,-43.706Zm29.383,5.576l5.776,-6.094c1.387,-1.464 2.437,-2.792 3.149,-3.985c0.711,-1.194 1.134,-2.302 1.266,-3.326c0.132,-1.025 -0.007,-1.983 -0.418,-2.876c-0.412,-0.892 -1.059,-1.757 -1.942,-2.594c-1.766,-1.674 -3.661,-2.213 -5.684,-1.616c-2.023,0.598 -4.398,2.335 -7.124,5.211l-5.273,5.564l10.25,9.716Zm7.76,7.354l12.017,11.389l6.529,-6.888c1.459,-1.539 2.537,-2.972 3.235,-4.298c0.698,-1.326 1.079,-2.57 1.142,-3.732c0.063,-1.162 -0.163,-2.25 -0.678,-3.265c-0.515,-1.015 -1.245,-1.971 -2.192,-2.867c-0.862,-0.818 -1.776,-1.421 -2.744,-1.811c-0.967,-0.39 -2.02,-0.49 -3.159,-0.3c-1.138,0.191 -2.358,0.699 -3.66,1.525c-1.302,0.826 -2.718,2.046 -4.248,3.661l-6.242,6.586Z" style="fill:#fff;fill-rule:nonzero;"/><path d="M249.963,88.375l-14.226,-49.767l-0.392,0.002c0.189,2.665 0.348,5.242 0.478,7.733c0.064,1.072 0.121,2.172 0.17,3.302c0.05,1.13 0.1,2.245 0.149,3.346c0.05,1.1 0.085,2.157 0.105,3.171c0.02,1.014 0.032,1.927 0.037,2.738l0.164,29.55l-12.038,0.067l-0.352,-63.533l18.338,-0.102l14.002,48.508l0.261,-0.001l14.332,-48.666l18.338,-0.101l0.353,63.533l-12.559,0.07l-0.167,-30.072c-0.004,-0.753 -0.002,-1.608 0.008,-2.564c0.009,-0.956 0.025,-1.971 0.048,-3.043c0.023,-1.072 0.053,-2.158 0.09,-3.259c0.038,-1.102 0.068,-2.174 0.091,-3.217c0.103,-2.434 0.19,-4.97 0.262,-7.606l-0.347,0.002l-14.76,49.841l-12.385,0.068Z" style="fill:#fff;fill-rule:nonzero;"/><path d="M400.632,163.349l-10.247,-11.358l18.024,-26.796c0.245,-0.377 0.605,-0.887 1.079,-1.529c0.474,-0.643 1.008,-1.369 1.604,-2.179c0.596,-0.811 1.223,-1.65 1.883,-2.519c0.66,-0.869 1.309,-1.707 1.945,-2.515c0.637,-0.809 1.228,-1.547 1.776,-2.217c0.547,-0.669 0.995,-1.2 1.343,-1.592c-0.426,0.306 -1,0.697 -1.722,1.173c-0.722,0.475 -1.512,0.984 -2.371,1.524c-0.858,0.541 -1.748,1.1 -2.67,1.678c-0.922,0.578 -1.812,1.127 -2.67,1.647c-0.857,0.52 -1.645,0.988 -2.364,1.402c-0.719,0.414 -1.289,0.734 -1.711,0.958l-28.381,15.187l-10.276,-11.39l36.926,-53.917l8.879,9.841l-20.916,28.587c-0.286,0.375 -0.704,0.917 -1.253,1.627c-0.549,0.711 -1.165,1.51 -1.846,2.398c-0.682,0.888 -1.402,1.82 -2.16,2.797c-0.757,0.976 -1.499,1.928 -2.223,2.854c-0.725,0.927 -1.4,1.79 -2.026,2.589c-0.625,0.798 -1.146,1.443 -1.561,1.935c0.532,-0.363 1.217,-0.815 2.055,-1.356c0.838,-0.542 1.729,-1.122 2.674,-1.74c0.944,-0.618 1.93,-1.244 2.958,-1.878c1.027,-0.635 1.981,-1.232 2.861,-1.792c0.88,-0.56 1.669,-1.047 2.368,-1.463c0.698,-0.415 1.205,-0.707 1.522,-0.875l32.335,-17.291l7.918,8.776l-20.517,30.391c-0.199,0.298 -0.542,0.772 -1.027,1.424c-0.484,0.652 -1.046,1.393 -1.683,2.222c-0.638,0.828 -1.329,1.716 -2.075,2.662c-0.747,0.946 -1.471,1.863 -2.173,2.75c-0.702,0.887 -1.365,1.72 -1.99,2.498c-0.624,0.778 -1.144,1.413 -1.559,1.904c0.531,-0.362 1.222,-0.819 2.07,-1.37c0.849,-0.552 1.772,-1.14 2.768,-1.766c0.996,-0.625 2.019,-1.265 3.068,-1.919c1.049,-0.654 2.05,-1.274 3.003,-1.861c0.954,-0.587 1.812,-1.117 2.575,-1.591c0.762,-0.473 1.345,-0.833 1.747,-1.079l30.581,-17.874l8.879,9.841l-57.42,31.202Z" style="fill:#fff;fill-rule:nonzero;"/></g></svg>