<?xml version="1.0" encoding="UTF-8" standalone="no"?><!DOCTYPE svg PUBLIC "-//W3C//DTD SVG 1.1//EN" "http://www.w3.org/Graphics/SVG/1.1/DTD/svg11.dtd"><svg width="100%" height="100%" viewBox="0 0 512 512" version="1.1" xmlns="http://www.w3.org/2000/svg" xmlns:xlink="http://www.w3.org/1999/xlink" xml:space="preserve" xmlns:serif="http://www.serif.com/" style="fill-rule:evenodd;clip-rule:evenodd;stroke-linejoin:round;stroke-miterlimit:1.41421;"><path d="M82,104.167l0,-64.334l183.333,-32.666l183.667,32.666l0,58.667l-367,5.667Z"/><clipPath id="_clip1"><path d="M82,104.167l0,-64.334l183.333,-32.666l183.667,32.666l0,58.667l-367,5.667Z"/></clipPath><g clip-path="url(#_clip1)"><path d="M75.667,50.833l189.666,-33.666l188.667,33l0.667,9.666l-189.334,-33l-187,32.667l-2.666,-8.667Z" style="fill:#fff;"/></g><path d="M82,204c0,-41.333 0,-113 0,-113c0,0 63.333,-36.667 184,-36.667c120.667,0 183,37.334 183,37.334c0,0 0.667,76.333 0,112.333c-2.711,146.388 -108.43,260.295 -183.667,301.333c-84.071,-46.77 -183.333,-166.965 -183.333,-301.333Z" style="fill:#fff;"/><clipPath id="_clip2"><path d="M82,204c0,-41.333 0,-113 0,-113c0,0 63.333,-36.667 184,-36.667c120.667,0 183,37.334 183,37.334c0,0 0.667,76.333 0,112.333c-2.711,146.388 -108.43,260.295 -183.667,301.333c-84.071,-46.77 -183.333,-166.965 -183.333,-301.333Z"/></clipPath><g clip-path="url(#_clip2)"><path d="M275.733,197.167c0,0 -0.006,5.395 0.6,8c1.377,5.916 8.904,17.619 12.2,22c1.503,1.997 3.434,3.658 5.4,5.2c3.7,2.9 12.4,8 16.8,12.2c4.4,4.2 11.005,12.57 14.8,18c3.474,4.969 4.866,10.395 4.6,11.2c0,0 3.468,1.162 7,-0.4c3.093,-1.368 10.996,-5.591 15,-12.4c3.545,-6.028 3.152,-12.81 3.2,-19.8c0.05,-7.064 0.096,-11.188 -2.8,-19.2c-2.349,-6.502 -4.008,-14.199 -3.2,-24.4c0.955,-12.053 18.47,-25.312 20,-23c-0.262,-0.75 -8.805,8.276 -12.6,19.2c-2.253,6.487 -0.807,10.133 -0.6,10.4c0.23,0.225 3.695,-5.511 8.2,-9c4.561,-3.533 8.6,-10.2 8.6,-10.2c0,0 1,5.8 -0.8,8.6c-1.8,2.8 -7.2,8.2 -8.2,11.8c-1,3.6 -2.2,7.4 -1.4,10c0.8,2.6 1.6,3.6 1.6,3.6c0,0 2.8,-6.4 5,-8c2.2,-1.6 4.335,-2.229 4.8,-4.6c0.797,-4.066 2.204,-4.608 2.6,-0.4c0.226,2.397 -1.722,4.397 -3,6.2c-3.514,4.959 -3.024,7.809 -4.4,13.2c-1.275,4.999 1.318,16.135 1.8,23.2c0.484,7.079 -1.428,16.41 -4.4,20.8c-3.206,4.737 -15.8,11.6 -15.8,11.6c0,0 3.096,1.975 3,5c-0.098,3.09 -1.194,20.908 -0.6,20.8c-0.137,0.428 -2.904,-4.85 -3.6,-10.6c-0.589,-4.868 -1.4,-8.4 -2.6,-9.4c-1.2,-1 -2.028,-2.6 -2.028,-2.6l-1.286,1c0,0 3,2.857 3,4.714c0,1.857 -0.031,12.082 -0.714,15.143c-0.785,3.518 -7.208,10.096 -9,12.428c-2.01,2.616 -2.143,9.143 -2.143,9.143c-0.549,-0.274 -3.741,-5.155 -2.714,-7.714c1.075,-2.681 2.47,-7.114 4.285,-9.429c1.62,-2.064 3.667,-5.511 3.429,-10.285c-0.206,-4.138 -0.714,-6.286 -0.714,-6.286c0,0 -3.143,6 -3.429,8.286c-0.286,2.285 -0.857,8 -0.857,8l-1.857,-2c0,0 -0.143,-15.429 0.285,-17.429c0.429,-2 0.143,-4.286 -2.142,-3.571c-2.286,0.714 -0.715,6.857 -1.429,8.714c-0.714,1.857 -5.286,10.714 -11.143,16.429c-5.857,5.714 -18,13 -19.143,17.714c-1.143,4.714 1.143,10.571 2.572,12.714c1.428,2.143 3.428,4.714 3.285,7.429c-0.142,2.714 -1.857,4.428 -5.142,6.571c-3.286,2.143 -9.99,6.965 -11.429,8.857c-1.886,2.481 -1.681,4.002 -2.286,4.572c-1.105,1.041 -3.143,1.428 -4.285,2.571c-1.143,1.143 0,2.286 -1.143,4.143c-1.143,1.857 -4.286,4.857 -5.143,5.429c-0.857,0.571 -2.714,2.285 -2.429,3.857c0.286,1.571 -1,4.571 -5.285,7.143c-4.286,2.571 -7.715,4.428 -11.858,3.571c-4.142,-0.857 -3.285,-6.857 -1.428,-10.571c1.857,-3.715 7.097,-9.59 10.857,-13.143c6.261,-5.918 8,-4.857 8,-4.857c0,0 9.429,-9.572 12.429,-13.572c3,-4 4.571,-5.571 1.714,-10.286c-2.857,-4.714 -9.78,-17.791 -11.286,-24c-1.424,-5.872 -0.625,-13.75 1.524,-19.19c2.054,-5.201 2.239,-7.016 4.444,-8.556c2.269,-1.584 3.312,-5.804 3.334,-11c0.006,-1.54 1.257,-4.065 2,-4.666c1.818,-1.472 0.472,-2.36 -0.445,-1.445c-3.737,3.73 -2.621,7.217 -2.889,8.334c-0.666,2.777 -1.555,6.777 -4.111,9.222c-2.555,2.444 -2.111,5.111 -6.111,3.222c-4,-1.889 -4.444,-4.333 -4.555,-6.667c-0.111,-2.333 -3.884,-5.356 -6.556,-8.666c-2.548,-3.158 -14.426,-12.976 -21.778,-17.889c-7.206,-4.816 -17.222,-15.889 -19.555,-19.111c-3.513,-4.851 -1.778,-7.778 -1.778,-7.778c0,0 -8.333,0.778 -12,-2c-3.667,-2.778 -11.889,-8.445 -16.667,-11c-4.777,-2.556 -6.444,-5.556 -8.889,-5.222c-2.444,0.333 -4.029,1.4 -1.666,9.333c1.555,5.222 1.666,11 3.444,13.778c1.778,2.778 3.778,10.333 3.778,10.333c0,0 3.333,1.111 5.667,3.778c2.333,2.667 2.222,11.889 1.111,15.444c-1.111,3.556 -1.889,5.223 -5.111,2.111c-3.223,-3.111 -7.445,-8.222 -8.889,-12.333c-1.445,-4.111 -4,-5.444 -5.334,-9.555c-1.333,-4.112 -5.444,-22.667 -5.888,-29c-0.445,-6.334 -0.667,-14.889 2.666,-18.112c3.334,-3.222 9.959,-3.7 14.445,-2.333c6.795,2.071 10.889,1.778 10.889,1.778c0,0 -12.667,-13.778 -13.778,-15c-1.111,-1.222 -2,-1.333 -2.445,1.111c-0.444,2.444 -0.444,8 -3.889,9.778c-3.444,1.778 -6.666,4 -7.888,6.555c-1.223,2.556 -2.112,9 -1.778,12.778c0.333,3.778 2.333,9.222 1.666,12.222c-1.414,6.363 -9,9.889 -9,9.889c0,0 -1.333,-6.222 -1.666,-12.889c-0.334,-6.666 0.133,-12.25 2.444,-16.111c2.289,-3.822 8.32,-21.582 9.889,-29.666c1.527,-7.867 5.889,-13.445 12.111,-13.445c6.222,0 10.556,5 14.334,7.333c3.777,2.334 11.363,9.422 14.111,9c2.365,-0.362 9.869,-5.752 17.111,-11.333c7.039,-5.424 -0.556,-2.333 8.444,-10.444c9,-8.111 13.778,-15.111 15.778,-21.334c2,-6.222 3.111,-7.666 2,-10.222c-1.111,-2.555 -6.444,-1.555 -9.444,-2.222c-3,-0.667 -4.778,-2.889 -7.889,-2.889c-3.111,0 -7.556,2.444 -11.223,2.444c-3.666,0 -6.111,-2.333 -2.444,-3.777c3.667,-1.445 4.333,-1.778 6.111,-2.778c1.778,-1 -2.111,-0.667 -4.555,0.333c-2.445,1 -4.556,2 -6.556,1.889c-2,-0.111 -2.444,-0.111 -2.444,-3.444c0,-3.334 -0.334,-9.667 4.111,-12.445c4.444,-2.778 7.555,-1.778 12.889,-3.778c5.333,-2 4.111,-3 8.333,-5.333c4.222,-2.333 8.667,-2.778 8.778,-4.444c0.111,-1.667 -4.114,-3.237 -7,-3.111c-5.529,0.24 -10.325,-1.183 -4.445,-2.556c2.94,-0.687 3,-4.111 5.667,-4.111c2.667,0 6.444,-0.445 6.444,-0.445c0,0 1,-1.222 1.667,-3.222c0.667,-2 1.333,-3.778 1.333,-3.778c0,0 2.889,2.778 4.111,5.112c1.223,2.333 1.445,4.777 1.445,4.777l2.222,0l0.111,-1.777c0,0 -1.444,-0.556 -1.333,-2.223c0.111,-1.666 3,-6 3,-6c0,0 2.555,2.334 4.667,4.556c2.111,2.222 3.666,4.778 3.666,4.778c0,0 8.667,1.111 10.889,2.555c2.222,1.445 4.333,4 7,4.889c2.667,0.889 6.556,1.667 8.333,0.778c1.778,-0.889 4.778,0.111 6,1.222c1.223,1.111 0.056,2.028 0.056,2.028l-5.22,0.518l-3.52,1.52l-0.96,1.6l3.04,0.4l4.48,3.04l3.6,4l7.6,3.44l6.8,8.4l-3.76,-0.48l-3.04,-1.92l-2.56,-2.72l-4.72,-0.4l-5.44,-1.84l-2.56,-1.52l-2,-0.24l1.04,1.2l1.92,0.8l5.12,5.12l5.6,0.72l8.88,4.72l1.76,1.92l0.48,3.84l-3.12,-3.44l-3.12,-1.84l-11.04,-0.4l-2.32,-1.52l2.48,3.6l6.4,2.72l3.52,2l2.4,0.72l1.36,2.88l-6.48,-0.88l-10.08,-2.56l-4.48,-2.64l-0.08,0.96l7.68,7.04l1.28,4.32l4.08,4.08l0.88,3.68l5.12,4.16l-5.76,-1.04l-5.92,-5.52l-2.96,-1.04l-3.84,-3.2l-2.4,-2.48l0.8,2.64l3.2,2.24l3.04,1.92l2.88,2.64l3.04,5.84l2.88,1.6l4.08,1.84l2.72,2.88l-9.12,-1.2l-3.2,-1.28l-2.32,-2.72l-1.84,-1.36l-7.04,-1.92l0.32,1.44l4.64,5.04l4.8,2.56l3.68,3.68l2,3.36l2.56,2.96l0.72,2.4l-4.96,-2.72l-2.16,-2l-6.64,-3.04l-0.88,-0.08l2.64,2.88l0.72,1.68l-3.92,-0.96l-2.24,-1.36l-1.92,-0.32l-0.08,0.64l1.36,1.52l3.36,0.64l3.12,0.96l2.4,1.6l2.72,2.32l2.8,0.64l1.76,2.4l-5.68,0.96l-3.76,-1.44l-2.64,-1.76l-3.76,-0.96l-2.32,0.56l-0.4,0.96l4.96,0.16l3.12,1.2l2.96,1.92l3.36,3.44l-3.28,-0.08l-3.12,-1.12l-2.8,-0.72l-4.8,0.48l-4.96,-0.48l0,1.28l1.76,0.8l4.24,0.8l3.04,1.6l5.92,5.76l3.28,0.56l2.64,-0.4l3.28,-1.36l2.32,-0.96l-0.56,2.16l-4.32,2.96l-4.96,1.2l-4,-0.96l-5,-2.76l-5,-1.48l-5.76,-2.16l-0.16,0.64l2.64,1.6l3.6,1.04l2.4,1.44l6.48,5.44l1.28,3.36l-3.6,-1.36l-5.92,-4.24l-3.12,-0.32l-0.72,0.24l0.56,0.8l3.2,0.4l2.4,1.44l3.84,5.92l4.8,2.48l-4.56,-0.16l-4,-2l-6.8,-4.88l-5.04,-0.8l-5.867,-2.623Z"/><path d="M256.133,324.553c4.223,0 10.889,-0.223 10.889,-0.223l-0.111,-3.333c0,0 -9.555,-12.444 -12.555,-21.333c-3,-8.889 -5.445,-17.222 -5.556,-21.667c-0.073,-2.911 1.111,-5.889 3,-5.667c1.889,0.223 5.333,3.778 9.222,7.556c3.889,3.778 6.445,6.889 6.445,6.889l0.333,6.222c0,0 4.778,3.111 5.889,4c1.111,0.889 1.444,2 1.111,4.222c-0.333,2.223 -1.667,9.111 -1.333,13.223c0.333,4.111 5.111,17 6,18.555c0.889,1.556 1.436,2.551 0.777,3.778c-1.989,3.703 -2.666,4.667 -5.555,4.667c-2.889,0 -14.778,-6.223 -21.445,-7.556c-6.666,-1.333 -13.111,-1.889 -15.777,-1.889c-2.667,0 -5.334,-1.889 -8.445,-1.889c-3.111,0 -4.778,0.667 -8,0.667c-3.222,0 -6.555,-0.445 -9.666,-3.445c-3.112,-3 -4.667,-5.555 -5.556,-7.222c-0.889,-1.666 -0.667,-3.222 1.333,-3.444c2,-0.222 11.889,-0.445 14.778,0.222c2.889,0.667 5.222,2 7.778,2.111c2.555,0.111 4,-1.222 7.333,-0.222c3.334,1 14.889,5.778 19.111,5.778Z"/></g><path d="M266.706,54.334l0.705,0.001l0.704,0.002l0.702,0.003l0.701,0.004l0.7,0.005l0.698,0.005l0.698,0.006l0.695,0.008l0.695,0.007l0.693,0.009l0.691,0.01l0.691,0.01l0.689,0.012l0.687,0.012l0.686,0.012l0.685,0.014l0.684,0.015l0.682,0.015l0.681,0.016l0.68,0.017l0.678,0.017l0.677,0.019l0.676,0.019l0.674,0.02l0.673,0.02l0.672,0.022l0.67,0.022l0.669,0.023l0.667,0.024l0.667,0.024l0.664,0.026l0.664,0.026l0.662,0.026l0.661,0.028l0.66,0.028l0.658,0.029l0.657,0.03l0.655,0.03l0.654,0.031l0.653,0.032l0.652,0.033l0.65,0.033l0.648,0.034l0.648,0.035l0.646,0.035l0.645,0.036l0.643,0.037l0.642,0.038l0.641,0.038l0.639,0.039l0.638,0.039l0.637,0.041l0.635,0.041l0.634,0.041l0.633,0.042l0.631,0.043l0.63,0.044l0.629,0.044l0.627,0.045l1.251,0.092l1.245,0.094l1.24,0.097l1.234,0.1l1.229,0.102l1.223,0.105l1.219,0.106l1.212,0.11l1.208,0.112l1.202,0.114l1.196,0.116l1.192,0.119l1.185,0.121l1.181,0.124l1.175,0.125l1.169,0.128l1.165,0.13l1.158,0.133l1.154,0.134l1.148,0.136l1.142,0.139l1.137,0.141l1.132,0.142l1.126,0.145l1.121,0.147l1.116,0.148l1.11,0.151l1.104,0.152l1.099,0.154l1.094,0.156l1.089,0.158l1.082,0.16l1.078,0.161l1.072,0.164l1.067,0.165l1.061,0.166l1.056,0.168l1.05,0.17l1.045,0.172l1.039,0.173l1.034,0.174l1.029,0.177l1.023,0.177l1.018,0.179l1.012,0.181l1.007,0.182l1.001,0.183l0.996,0.185l0.99,0.186l0.985,0.187l0.98,0.189l0.974,0.19l0.968,0.191l0.963,0.192l0.958,0.194l0.952,0.194l0.947,0.196l0.941,0.197l0.936,0.198l0.93,0.199l0.925,0.2l0.92,0.201l0.914,0.202l0.908,0.202l0.903,0.204l0.898,0.205l0.892,0.205l0.886,0.207l0.881,0.207l0.876,0.208l0.87,0.208l0.865,0.21l0.859,0.21l0.853,0.211l0.849,0.211l0.842,0.212l0.837,0.212l0.832,0.214l0.826,0.213l0.821,0.214l0.815,0.215l0.81,0.215l0.804,0.216l0.799,0.216l0.793,0.216l0.788,0.217l0.782,0.217l0.777,0.217l0.771,0.217l0.765,0.218l0.761,0.218l0.754,0.218l0.749,0.219l0.744,0.218l0.738,0.219l0.732,0.219l0.727,0.218l0.722,0.219l0.716,0.219l0.71,0.218l0.705,0.219l0.7,0.219l0.694,0.218l0.688,0.219l0.683,0.218l0.677,0.218l0.672,0.217l0.666,0.218l0.661,0.217l0.655,0.217l0.649,0.217l0.645,0.216l0.638,0.216l0.633,0.216l0.627,0.215l0.622,0.215l0.617,0.214l0.61,0.213l0.606,0.214l0.599,0.212l0.594,0.212l0.589,0.211l0.583,0.211l0.577,0.21l0.572,0.21l0.566,0.208l0.561,0.208l0.555,0.207l0.55,0.207l0.544,0.205l0.539,0.205l0.532,0.204l0.528,0.202l0.522,0.202l0.516,0.201l0.51,0.2l0.505,0.199l0.5,0.198l0.494,0.197l0.488,0.196l0.483,0.194l0.477,0.194l0.471,0.192l0.466,0.191l0.461,0.19l0.454,0.189l0.45,0.187l0.443,0.186l0.438,0.185l0.432,0.183l0.427,0.182l0.421,0.181l0.416,0.179l0.41,0.177l0.404,0.177l0.399,0.174l0.393,0.173l0.388,0.172l0.382,0.17l0.376,0.168l0.371,0.166l0.365,0.165l0.359,0.164l0.354,0.161l0.691,0.318l0.669,0.31l0.646,0.303l0.623,0.295l0.601,0.287l0.578,0.28l0.556,0.27l0.533,0.263l0.511,0.253l0.488,0.245l0.466,0.235l0.443,0.226l0.42,0.216l0.398,0.207l0.375,0.196l0.352,0.187l0.33,0.176l0.307,0.165l0.285,0.154l0.261,0.143l0.24,0.132l0.216,0.12l0.194,0.108l0.319,0.181l0.228,0.132l0.136,0.08l0.046,0.027l0.007,0.866l0.02,2.484l0.03,3.931l0.018,2.455l0.019,2.753l0.02,3.029l0.02,3.285l0.021,3.517l0.021,3.73l0.02,3.921l0.019,4.091l0.018,4.239l0.017,4.365l0.015,4.471l0.012,4.556l0.005,2.302l0.004,2.315l0.004,2.326l0.003,2.334l0.002,2.338l0.001,2.341l0,2.34l-0.001,2.338l-0.001,2.332l-0.003,2.323l-0.004,2.313l-0.006,2.298l-0.006,2.283l-0.008,2.263l-0.009,2.242l-0.01,2.217l-0.012,2.19l-0.014,2.161l-0.014,2.128l-0.017,2.093l-0.017,2.056l-0.02,2.015l-0.021,1.972l-0.023,1.926l-0.025,1.878l-0.026,1.826l-0.029,1.773l-0.03,1.717l-0.017,0.857l-0.019,0.857l-0.022,0.856l-0.024,0.855l-0.027,0.854l-0.029,0.854l-0.031,0.853l-0.033,0.852l-0.036,0.851l-0.038,0.851l-0.04,0.85l-0.043,0.849l-0.045,0.848l-0.047,0.848l-0.049,0.846l-0.052,0.846l-0.054,0.846l-0.056,0.844l-0.059,0.844l-0.06,0.843l-0.063,0.842l-0.065,0.841l-0.068,0.841l-0.069,0.84l-0.072,0.839l-0.074,0.838l-0.077,0.837l-0.078,0.837l-0.081,0.836l-0.083,0.835l-0.085,0.834l-0.087,0.833l-0.089,0.833l-0.092,0.832l-0.093,0.831l-0.096,0.83l-0.098,0.829l-0.1,0.829l-0.102,0.828l-0.105,0.827l-0.106,0.826l-0.109,0.825l-0.111,0.825l-0.112,0.823l-0.115,0.823l-0.117,0.822l-0.119,0.822l-0.121,0.82l-0.124,0.819l-0.125,0.819l-0.127,0.818l-0.13,0.817l-0.131,0.816l-0.134,0.816l-0.135,0.814l-0.138,0.814l-0.139,0.813l-0.142,0.812l-0.143,0.811l-0.146,0.81l-0.148,0.81l-0.149,0.808l-0.152,0.808l-0.153,0.807l-0.156,0.806l-0.157,0.805l-0.16,0.805l-0.161,0.803l-0.164,0.803l-0.165,0.801l-0.167,0.801l-0.17,0.8l-0.171,0.799l-0.173,0.799l-0.175,0.797l-0.177,0.796l-0.178,0.796l-0.181,0.795l-0.183,0.793l-0.184,0.793l-0.186,0.792l-0.189,0.792l-0.19,0.79l-0.192,0.789l-0.193,0.789l-0.196,0.787l-0.198,0.787l-0.199,0.786l-0.201,0.785l-0.203,0.784l-0.205,0.783l-0.207,0.782l-0.208,0.781l-0.21,0.78l-0.212,0.78l-0.214,0.778l-0.216,0.778l-0.217,0.777l-0.219,0.775l-0.221,0.775l-0.223,0.774l-0.224,0.773l-0.227,0.772l-0.227,0.771l-0.23,0.77l-0.232,0.77l-0.233,0.768l-0.235,0.767l-0.236,0.767l-0.238,0.765l-0.24,0.765l-0.242,0.764l-0.243,0.762l-0.245,0.762l-0.247,0.761l-0.249,0.76l-0.25,0.759l-0.251,0.757l-0.254,0.757l-0.255,0.756l-0.256,0.755l-0.259,0.755l-0.26,0.753l-0.261,0.752l-0.263,0.751l-0.265,0.75l-0.266,0.75l-0.268,0.748l-0.27,0.747l-0.271,0.746l-0.273,0.746l-0.274,0.744l-0.276,0.744l-0.278,0.742l-0.279,0.741l-0.28,0.741l-0.282,0.739l-0.284,0.739l-0.285,0.737l-0.287,0.737l-0.288,0.735l-0.29,0.735l-0.291,0.733l-0.293,0.733l-0.294,0.731l-0.296,0.73l-0.297,0.73l-0.299,0.728l-0.3,0.728l-0.302,0.726l-0.303,0.726l-0.304,0.724l-0.306,0.723l-0.308,0.723l-0.309,0.721l-0.31,0.72l-0.312,0.72l-0.313,0.718l-0.315,0.717l-0.316,0.716l-0.317,0.716l-0.319,0.714l-0.32,0.713l-0.322,0.712l-0.323,0.711l-0.324,0.71l-0.326,0.709l-0.327,0.708l-0.328,0.706l-0.33,0.706l-0.331,0.705l-0.333,0.704l-0.334,0.702l-0.335,0.702l-0.336,0.7l-0.338,0.7l-0.339,0.698l-0.34,0.698l-0.342,0.696l-0.343,0.695l-0.344,0.694l-0.346,0.693l-0.347,0.692l-0.348,0.691l-0.349,0.69l-0.35,0.689l-0.352,0.688l-0.353,0.686l-0.355,0.686l-0.355,0.684l-0.357,0.684l-0.358,0.682l-0.359,0.681l-0.36,0.68l-0.362,0.679l-0.363,0.678l-0.364,0.677l-0.365,0.675l-0.366,0.675l-0.368,0.674l-0.368,0.672l-0.37,0.671l-0.371,0.67l-0.372,0.67l-0.373,0.667l-0.375,0.667l-0.375,0.666l-0.377,0.665l-0.378,0.663l-0.378,0.663l-0.38,0.661l-0.381,0.66l-0.383,0.659l-0.383,0.658l-0.384,0.657l-0.386,0.655l-0.386,0.655l-0.388,0.653l-0.388,0.652l-0.39,0.651l-0.39,0.65l-0.392,0.649l-0.393,0.648l-0.394,0.646l-0.395,0.645l-0.395,0.645l-0.397,0.643l-0.398,0.642l-0.399,0.64l-0.4,0.64l-0.4,0.638l-0.402,0.638l-0.403,0.636l-0.404,0.635l-0.404,0.633l-0.406,0.633l-0.407,0.631l-0.407,0.631l-0.409,0.629l-0.409,0.628l-0.41,0.626l-0.412,0.626l-0.412,0.624l-0.413,0.623l-0.414,0.622l-0.415,0.621l-0.415,0.62l-0.417,0.618l-0.417,0.618l-0.419,0.616l-0.419,0.615l-0.42,0.613l-0.421,0.613l-0.422,0.611l-0.423,0.61l-0.423,0.609l-0.424,0.608l-0.426,0.606l-0.426,0.605l-0.426,0.604l-0.428,0.603l-0.428,0.602l-0.429,0.6l-0.43,0.599l-0.431,0.598l-0.432,0.597l-0.432,0.595l-0.433,0.595l-0.434,0.593l-0.434,0.592l-0.436,0.59l-0.436,0.59l-0.437,0.588l-0.437,0.587l-0.438,0.585l-0.439,0.585l-0.44,0.583l-0.44,0.582l-0.441,0.58l-0.442,0.58l-0.443,0.578l-0.443,0.577l-0.444,0.576l-0.444,0.574l-0.445,0.573l-0.446,0.572l-0.446,0.571l-0.447,0.569l-0.448,0.568l-0.449,0.567l-0.449,0.566l-0.449,0.564l-0.45,0.563l-0.451,0.562l-0.452,0.56l-0.452,0.56l-0.452,0.558l-0.454,0.556l-0.453,0.556l-0.455,0.554l-0.455,0.553l-0.455,0.551l-0.456,0.55l-0.457,0.549l-0.457,0.548l-0.458,0.546l-0.458,0.545l-0.458,0.544l-0.46,0.543l-0.46,0.541l-0.46,0.54l-0.461,0.538l-0.461,0.538l-0.462,0.535l-0.462,0.535l-0.463,0.533l-0.463,0.532l-0.463,0.531l-0.465,0.53l-0.464,0.528l-0.465,0.526l-0.466,0.526l-0.466,0.524l-0.466,0.523l-0.467,0.521l-0.467,0.52l-0.467,0.519l-0.468,0.517l-0.469,0.517l-0.469,0.514l-0.469,0.514l-0.469,0.512l-0.47,0.511l-0.471,0.509l-0.47,0.508l-0.471,0.507l-0.472,0.505l-0.471,0.504l-0.472,0.503l-0.473,0.501l-0.473,0.5l-0.473,0.499l-0.473,0.497l-0.474,0.496l-0.474,0.494l-0.474,0.493l-0.475,0.492l-0.474,0.49l-0.476,0.489l-0.475,0.488l-0.476,0.486l-0.476,0.485l-0.476,0.484l-0.476,0.482l-0.477,0.481l-0.477,0.479l-0.477,0.478l-0.478,0.477l-0.477,0.475l-0.478,0.474l-0.478,0.472l-0.478,0.471l-0.479,0.47l-0.478,0.468l-0.479,0.467l-0.479,0.465l-0.48,0.464l-0.479,0.463l-0.479,0.461l-0.48,0.46l-0.48,0.458l-0.48,0.457l-0.48,0.456l-0.48,0.454l-0.481,0.453l-0.48,0.451l-0.481,0.45l-0.48,0.448l-0.481,0.447l-0.481,0.446l-0.481,0.444l-0.481,0.443l-0.481,0.441l-0.481,0.44l-0.482,0.438l-0.481,0.437l-0.482,0.436l-0.481,0.434l-0.481,0.433l-0.482,0.431l-0.482,0.43l-0.481,0.428l-0.482,0.427l-0.481,0.425l-0.482,0.424l-0.482,0.423l-0.481,0.421l-0.482,0.419l-0.481,0.418l-0.482,0.417l-0.482,0.415l-0.481,0.414l-0.481,0.412l-0.482,0.411l-0.481,0.409l-0.482,0.408l-0.481,0.407l-0.481,0.405l-0.481,0.403l-0.481,0.402l-0.481,0.4l-0.481,0.399l-0.481,0.398l-0.48,0.396l-0.481,0.394l-0.48,0.393l-0.48,0.392l-0.48,0.39l-0.48,0.388l-0.48,0.387l-0.48,0.386l-0.479,0.384l-0.48,0.382l-0.479,0.381l-0.479,0.38l-0.479,0.378l-0.479,0.376l-0.478,0.375l-0.478,0.374l-0.479,0.371l-0.477,0.371l-0.478,0.369l-0.478,0.367l-0.477,0.366l-0.477,0.364l-0.476,0.363l-0.477,0.361l-0.476,0.36l-0.476,0.358l-0.476,0.357l-0.475,0.355l-0.476,0.353l-0.475,0.352l-0.474,0.351l-0.475,0.349l-0.474,0.347l-0.473,0.346l-0.474,0.344l-0.473,0.343l-0.473,0.341l-0.472,0.34l-0.472,0.338l-0.472,0.336l-0.471,0.335l-0.472,0.334l-0.47,0.331l-0.471,0.331l-0.47,0.328l-0.469,0.327l-0.47,0.326l-0.468,0.324l-0.469,0.322l-0.468,0.321l-0.468,0.319l-0.467,0.318l-0.467,0.316l-0.466,0.314l-0.466,0.313l-0.466,0.312l-0.465,0.309l-0.464,0.308l-0.465,0.307l-0.463,0.305l-0.464,0.303l-0.462,0.302l-0.463,0.3l-0.462,0.299l-0.461,0.297l-0.461,0.295l-0.46,0.294l-0.46,0.292l-0.459,0.29l-0.459,0.289l-0.458,0.287l-0.458,0.286l-0.457,0.284l-0.457,0.282l-0.456,0.281l-0.456,0.279l-0.455,0.278l-0.454,0.276l-0.454,0.274l-0.454,0.273l-0.452,0.271l-0.452,0.269l-0.452,0.268l-0.451,0.266l-0.45,0.264l-0.45,0.263l-0.449,0.261l-0.449,0.26l-0.447,0.258l-0.448,0.256l-0.446,0.254l-0.446,0.253l-0.445,0.252l-0.445,0.249l-0.444,0.248l-0.443,0.246l-0.443,0.245l-0.441,0.243l-0.442,0.241l-0.492,-0.275l-0.494,-0.276l-0.493,-0.278l-0.494,-0.28l-0.494,-0.282l-0.494,-0.283l-0.495,-0.285l-0.495,-0.287l-0.496,-0.288l-0.495,-0.29l-0.496,-0.291l-0.496,-0.293l-0.497,-0.295l-0.497,-0.297l-0.497,-0.298l-0.497,-0.3l-0.498,-0.301l-0.498,-0.303l-0.498,-0.305l-0.498,-0.306l-0.499,-0.308l-0.499,-0.31l-0.499,-0.311l-0.5,-0.313l-0.499,-0.314l-0.5,-0.316l-0.5,-0.318l-0.5,-0.319l-0.501,-0.321l-0.5,-0.322l-0.501,-0.324l-0.501,-0.326l-0.501,-0.327l-0.502,-0.329l-0.501,-0.331l-0.502,-0.332l-0.502,-0.333l-0.502,-0.336l-0.502,-0.336l-0.502,-0.339l-0.503,-0.34l-0.503,-0.341l-0.502,-0.343l-0.503,-0.345l-0.503,-0.346l-0.503,-0.348l-0.504,-0.349l-0.503,-0.351l-0.503,-0.353l-0.504,-0.354l-0.504,-0.355l-0.503,-0.357l-0.504,-0.359l-0.504,-0.36l-0.504,-0.362l-0.504,-0.363l-0.504,-0.365l-0.504,-0.366l-0.504,-0.368l-0.505,-0.369l-0.504,-0.371l-0.504,-0.372l-0.505,-0.374l-0.504,-0.376l-0.504,-0.377l-0.505,-0.378l-0.504,-0.38l-0.505,-0.381l-0.504,-0.383l-0.504,-0.385l-0.505,-0.386l-0.504,-0.387l-0.505,-0.389l-0.504,-0.391l-0.504,-0.391l-0.504,-0.394l-0.505,-0.395l-0.504,-0.396l-0.504,-0.398l-0.504,-0.399l-0.504,-0.401l-0.504,-0.402l-0.504,-0.404l-0.504,-0.405l-0.503,-0.407l-0.504,-0.408l-0.504,-0.409l-0.503,-0.411l-0.503,-0.412l-0.504,-0.414l-0.503,-0.416l-0.503,-0.416l-0.503,-0.418l-0.502,-0.42l-0.503,-0.421l-0.502,-0.423l-0.503,-0.423l-0.502,-0.426l-0.502,-0.427l-0.502,-0.428l-0.502,-0.429l-0.501,-0.431l-0.501,-0.433l-0.502,-0.433l-0.501,-0.436l-0.5,-0.436l-0.501,-0.438l-0.501,-0.44l-0.5,-0.44l-0.5,-0.443l-0.5,-0.443l-0.499,-0.445l-0.499,-0.446l-0.5,-0.448l-0.498,-0.449l-0.499,-0.451l-0.498,-0.452l-0.499,-0.453l-0.497,-0.454l-0.498,-0.456l-0.497,-0.458l-0.498,-0.458l-0.496,-0.46l-0.497,-0.462l-0.496,-0.463l-0.496,-0.464l-0.496,-0.465l-0.495,-0.467l-0.495,-0.468l-0.495,-0.47l-0.494,-0.47l-0.494,-0.472l-0.494,-0.474l-0.494,-0.475l-0.493,-0.476l-0.492,-0.477l-0.493,-0.479l-0.492,-0.48l-0.491,-0.482l-0.492,-0.482l-0.491,-0.484l-0.49,-0.486l-0.491,-0.486l-0.489,-0.488l-0.49,-0.489l-0.489,-0.491l-0.488,-0.492l-0.489,-0.493l-0.488,-0.494l-0.487,-0.496l-0.487,-0.497l-0.486,-0.498l-0.487,-0.5l-0.485,-0.501l-0.486,-0.502l-0.484,-0.503l-0.485,-0.505l-0.484,-0.505l-0.483,-0.508l-0.483,-0.508l-0.483,-0.51l-0.482,-0.511l-0.481,-0.512l-0.481,-0.513l-0.481,-0.515l-0.48,-0.516l-0.479,-0.517l-0.48,-0.518l-0.478,-0.52l-0.478,-0.521l-0.478,-0.522l-0.477,-0.523l-0.476,-0.525l-0.476,-0.525l-0.475,-0.527l-0.475,-0.529l-0.475,-0.529l-0.473,-0.531l-0.473,-0.531l-0.473,-0.533l-0.472,-0.535l-0.471,-0.535l-0.471,-0.537l-0.471,-0.538l-0.469,-0.539l-0.469,-0.54l-0.469,-0.541l-0.468,-0.543l-0.467,-0.544l-0.466,-0.545l-0.466,-0.546l-0.466,-0.547l-0.465,-0.548l-0.464,-0.55l-0.463,-0.551l-0.463,-0.552l-0.462,-0.553l-0.462,-0.554l-0.46,-0.556l-0.461,-0.556l-0.459,-0.558l-0.459,-0.559l-0.458,-0.56l-0.457,-0.561l-0.457,-0.563l-0.456,-0.563l-0.455,-0.565l-0.455,-0.565l-0.454,-0.567l-0.453,-0.568l-0.452,-0.569l-0.452,-0.571l-0.451,-0.571l-0.45,-0.573l-0.45,-0.573l-0.449,-0.575l-0.448,-0.576l-0.447,-0.577l-0.446,-0.578l-0.446,-0.579l-0.445,-0.58l-0.444,-0.581l-0.443,-0.583l-0.443,-0.583l-0.441,-0.585l-0.441,-0.585l-0.44,-0.587l-0.44,-0.588l-0.438,-0.589l-0.438,-0.59l-0.437,-0.591l-0.436,-0.592l-0.435,-0.593l-0.434,-0.594l-0.434,-0.596l-0.432,-0.596l-0.432,-0.597l-0.431,-0.599l-0.43,-0.599l-0.429,-0.601l-0.428,-0.602l-0.428,-0.602l-0.426,-0.604l-0.426,-0.605l-0.424,-0.606l-0.424,-0.606l-0.423,-0.608l-0.422,-0.609l-0.421,-0.61l-0.42,-0.611l-0.419,-0.612l-0.419,-0.613l-0.417,-0.614l-0.416,-0.615l-0.416,-0.616l-0.414,-0.617l-0.414,-0.617l-0.412,-0.619l-0.412,-0.62l-0.41,-0.621l-0.41,-0.622l-0.408,-0.623l-0.408,-0.624l-0.406,-0.625l-0.406,-0.626l-0.405,-0.627l-0.403,-0.628l-0.403,-0.629l-0.401,-0.629l-0.401,-0.631l-0.399,-0.632l-0.399,-0.633l-0.397,-0.633l-0.396,-0.635l-0.396,-0.635l-0.394,-0.637l-0.393,-0.637l-0.392,-0.639l-0.391,-0.639l-0.39,-0.64l-0.389,-0.642l-0.388,-0.642l-0.386,-0.643l-0.386,-0.644l-0.384,-0.645l-0.384,-0.646l-0.382,-0.647l-0.381,-0.647l-0.38,-0.649l-0.379,-0.65l-0.378,-0.65l-0.376,-0.652l-0.376,-0.652l-0.374,-0.653l-0.373,-0.654l-0.372,-0.655l-0.371,-0.656l-0.37,-0.657l-0.368,-0.658l-0.367,-0.658l-0.366,-0.66l-0.365,-0.66l-0.364,-0.661l-0.362,-0.662l-0.362,-0.663l-0.36,-0.664l-0.359,-0.665l-0.357,-0.665l-0.357,-0.667l-0.355,-0.667l-0.354,-0.668l-0.352,-0.669l-0.352,-0.67l-0.35,-0.671l-0.349,-0.672l-0.348,-0.672l-0.346,-0.673l-0.345,-0.674l-0.344,-0.675l-0.342,-0.676l-0.342,-0.677l-0.34,-0.677l-0.338,-0.678l-0.338,-0.68l-0.336,-0.68l-0.334,-0.68l-0.334,-0.682l-0.332,-0.682l-0.331,-0.683l-0.329,-0.684l-0.328,-0.685l-0.327,-0.686l-0.325,-0.686l-0.324,-0.687l-0.323,-0.688l-0.321,-0.689l-0.32,-0.69l-0.319,-0.69l-0.317,-0.691l-0.316,-0.692l-0.314,-0.693l-0.313,-0.694l-0.312,-0.694l-0.31,-0.695l-0.309,-0.696l-0.307,-0.696l-0.306,-0.698l-0.304,-0.698l-0.304,-0.699l-0.301,-0.699l-0.3,-0.701l-0.299,-0.701l-0.297,-0.702l-0.296,-0.702l-0.295,-0.704l-0.293,-0.704l-0.291,-0.705l-0.29,-0.705l-0.288,-0.706l-0.287,-0.708l-0.286,-0.707l-0.284,-0.709l-0.282,-0.709l-0.281,-0.71l-0.28,-0.711l-0.278,-0.711l-0.276,-0.712l-0.275,-0.713l-0.273,-0.713l-0.272,-0.714l-0.27,-0.715l-0.269,-0.716l-0.267,-0.716l-0.266,-0.717l-0.264,-0.718l-0.262,-0.718l-0.261,-0.719l-0.259,-0.72l-0.258,-0.72l-0.256,-0.721l-0.255,-0.722l-0.253,-0.723l-0.251,-0.723l-0.25,-0.724l-0.248,-0.724l-0.246,-0.725l-0.245,-0.726l-0.243,-0.726l-0.242,-0.727l-0.24,-0.728l-0.238,-0.728l-0.237,-0.729l-0.235,-0.73l-0.233,-0.73l-0.232,-0.731l-0.23,-0.732l-0.228,-0.732l-0.226,-0.733l-0.225,-0.733l-0.224,-0.734l-0.221,-0.735l-0.22,-0.735l-0.218,-0.736l-0.216,-0.736l-0.215,-0.738l-0.213,-0.737l-0.211,-0.739l-0.21,-0.739l-0.207,-0.739l-0.206,-0.74l-0.205,-0.741l-0.202,-0.741l-0.201,-0.742l-0.199,-0.743l-0.197,-0.743l-0.195,-0.744l-0.194,-0.744l-0.192,-0.745l-0.19,-0.745l-0.188,-0.746l-0.187,-0.747l-0.184,-0.747l-0.183,-0.747l-0.181,-0.749l-0.179,-0.748l-0.178,-0.75l-0.175,-0.75l-0.174,-0.75l-0.172,-0.751l-0.17,-0.752l-0.168,-0.752l-0.166,-0.752l-0.165,-0.753l-0.162,-0.754l-0.161,-0.754l-0.159,-0.755l-0.157,-0.755l-0.155,-0.756l-0.153,-0.756l-0.151,-0.757l-0.15,-0.758l-0.147,-0.757l-0.146,-0.759l-0.143,-0.759l-0.142,-0.759l-0.14,-0.76l-0.138,-0.76l-0.136,-0.761l-0.134,-0.762l-0.132,-0.761l-0.13,-0.763l-0.128,-0.763l-0.126,-0.763l-0.124,-0.764l-0.122,-0.764l-0.12,-0.765l-0.119,-0.765l-0.116,-0.766l-0.114,-0.766l-0.112,-0.767l-0.11,-0.767l-0.109,-0.767l-0.106,-0.768l-0.104,-0.769l-0.102,-0.769l-0.1,-0.769l-0.098,-0.77l-0.096,-0.77l-0.094,-0.771l-0.092,-0.771l-0.09,-0.771l-0.088,-0.772l-0.086,-0.773l-0.083,-0.773l-0.082,-0.773l-0.08,-0.774l-0.077,-0.774l-0.075,-0.774l-0.074,-0.775l-0.071,-0.776l-0.069,-0.775l-0.067,-0.777l-0.064,-0.776l-0.063,-0.777l-0.061,-0.778l-0.058,-0.777l-0.056,-0.779l-0.054,-0.778l-0.052,-0.779l-0.05,-0.779l-0.048,-0.78l-0.045,-0.78l-0.044,-0.781l-0.041,-0.781l-0.039,-0.781l-0.037,-0.781l-0.034,-0.782l-0.033,-0.783l-0.03,-0.782l-0.028,-0.783l-0.026,-0.784l-0.023,-0.784l-0.022,-0.784l-0.019,-0.784l-0.017,-0.785l-0.014,-0.785l-0.013,-0.786l-0.01,-0.785l-0.008,-0.787l-0.005,-0.786l-0.004,-0.787l-0.001,-0.787l0,-113l0.046,-0.027l0.139,-0.078l0.232,-0.129l0.324,-0.178l0.196,-0.106l0.22,-0.118l0.242,-0.13l0.266,-0.14l0.289,-0.152l0.311,-0.162l0.335,-0.173l0.357,-0.183l0.38,-0.193l0.404,-0.202l0.426,-0.213l0.449,-0.222l0.472,-0.231l0.494,-0.24l0.518,-0.249l0.54,-0.258l0.563,-0.266l0.586,-0.274l0.609,-0.282l0.631,-0.29l0.654,-0.298l0.677,-0.304l0.699,-0.312l0.722,-0.319l0.37,-0.162l0.375,-0.164l0.381,-0.165l0.386,-0.167l0.392,-0.168l0.398,-0.17l0.404,-0.172l0.409,-0.173l0.415,-0.174l0.42,-0.176l0.426,-0.177l0.432,-0.179l0.437,-0.18l0.443,-0.182l0.448,-0.182l0.455,-0.184l0.459,-0.185l0.466,-0.187l0.471,-0.188l0.477,-0.189l0.482,-0.19l0.488,-0.191l0.493,-0.192l0.499,-0.193l0.505,-0.195l0.511,-0.195l0.516,-0.197l0.521,-0.197l0.527,-0.198l0.533,-0.199l0.538,-0.201l0.544,-0.201l0.55,-0.201l0.555,-0.203l0.561,-0.203l0.566,-0.205l0.572,-0.205l0.577,-0.205l0.583,-0.207l0.589,-0.207l0.594,-0.207l0.6,-0.208l0.605,-0.209l0.611,-0.209l0.617,-0.21l0.622,-0.211l0.628,-0.21l0.633,-0.212l0.638,-0.211l0.645,-0.213l0.65,-0.212l0.655,-0.213l0.661,-0.213l0.666,-0.213l0.672,-0.214l0.678,-0.214l0.683,-0.214l0.689,-0.214l0.694,-0.215l0.7,-0.214l0.705,-0.215l0.711,-0.215l0.716,-0.215l0.722,-0.214l0.727,-0.215l0.733,-0.215l0.739,-0.215l0.744,-0.214l0.749,-0.215l0.755,-0.214l0.76,-0.215l0.766,-0.214l0.772,-0.214l0.777,-0.213l0.782,-0.214l0.788,-0.213l0.794,-0.213l0.799,-0.212l0.804,-0.212l0.81,-0.212l0.816,-0.211l0.821,-0.211l0.826,-0.21l0.832,-0.21l0.837,-0.21l0.843,-0.208l0.849,-0.209l0.853,-0.207l0.86,-0.207l0.865,-0.206l0.87,-0.206l0.875,-0.205l0.882,-0.204l0.886,-0.204l0.892,-0.202l0.898,-0.202l0.903,-0.201l0.908,-0.2l0.914,-0.199l0.92,-0.199l0.924,-0.197l0.931,-0.197l0.935,-0.195l0.941,-0.194l0.947,-0.194l0.952,-0.192l0.957,-0.191l0.963,-0.19l0.969,-0.189l0.973,-0.188l0.979,-0.186l0.985,-0.185l0.99,-0.184l0.995,-0.183l1.001,-0.182l1.006,-0.18l1.012,-0.178l1.017,-0.178l1.023,-0.176l1.027,-0.174l1.034,-0.173l1.038,-0.171l1.044,-0.17l1.05,-0.169l1.055,-0.167l1.06,-0.165l1.066,-0.164l1.071,-0.162l1.076,-0.16l1.082,-0.158l1.087,-0.157l1.093,-0.155l1.098,-0.154l1.103,-0.151l1.109,-0.15l1.114,-0.148l1.119,-0.146l1.125,-0.144l1.13,-0.142l1.136,-0.14l1.141,-0.138l1.146,-0.136l1.151,-0.134l1.157,-0.132l1.163,-0.13l1.167,-0.127l1.173,-0.126l1.179,-0.124l1.183,-0.121l1.19,-0.119l1.194,-0.116l1.2,-0.115l1.205,-0.112l1.21,-0.11l1.216,-0.107l1.221,-0.105l1.226,-0.103l1.232,-0.1l1.237,-0.098l1.242,-0.095l1.248,-0.093l1.253,-0.09l1.258,-0.088l1.264,-0.085l1.269,-0.082l1.274,-0.08l0.639,-0.039l0.64,-0.038l0.642,-0.037l0.643,-0.037l0.645,-0.036l0.645,-0.036l0.647,-0.035l0.649,-0.034l0.649,-0.033l0.651,-0.033l0.653,-0.032l0.653,-0.031l0.655,-0.031l0.657,-0.03l0.657,-0.029l0.659,-0.028l0.661,-0.028l0.661,-0.027l0.663,-0.026l0.664,-0.026l0.666,-0.025l0.667,-0.024l0.668,-0.023l0.67,-0.023l0.67,-0.022l0.673,-0.021l0.673,-0.02l0.675,-0.02l0.676,-0.018l0.677,-0.018l0.679,-0.018l0.68,-0.016l0.682,-0.016l0.682,-0.015l0.684,-0.014l0.686,-0.013l0.686,-0.013l0.688,-0.012l0.69,-0.011l0.69,-0.01l0.692,-0.01l0.693,-0.008l0.695,-0.008l0.696,-0.007l0.697,-0.006l0.698,-0.006l0.7,-0.004l0.701,-0.004l0.703,-0.003l0.704,-0.002l0.705,-0.001l0.706,-0.001l0.706,0.001Zm-1.403,8l-0.695,0.001l-0.695,0.002l-0.693,0.003l-0.691,0.004l-0.691,0.004l-0.689,0.005l-0.687,0.007l-0.687,0.006l-0.685,0.008l-0.684,0.009l-0.682,0.009l-0.681,0.01l-0.68,0.011l-0.678,0.012l-0.678,0.012l-0.676,0.013l-0.674,0.014l-0.673,0.015l-0.672,0.016l-0.671,0.016l-0.669,0.017l-0.668,0.018l-0.667,0.018l-0.665,0.02l-0.664,0.02l-0.663,0.02l-0.661,0.022l-0.661,0.022l-0.658,0.023l-0.658,0.024l-0.656,0.024l-0.655,0.026l-0.653,0.025l-0.652,0.027l-0.651,0.027l-0.65,0.028l-0.648,0.029l-0.647,0.03l-0.646,0.03l-0.644,0.031l-0.643,0.031l-0.642,0.032l-0.64,0.033l-0.639,0.034l-0.637,0.034l-0.637,0.035l-0.635,0.036l-0.634,0.036l-0.632,0.037l-0.631,0.038l-0.627,0.038l-1.258,0.079l-1.251,0.081l-1.244,0.084l-1.24,0.086l-1.234,0.089l-1.23,0.091l-1.223,0.094l-1.219,0.096l-1.213,0.099l-1.208,0.101l-1.202,0.103l-1.197,0.106l-1.192,0.108l-1.187,0.111l-1.181,0.113l-1.176,0.114l-1.171,0.118l-1.165,0.119l-1.16,0.121l-1.155,0.124l-1.149,0.126l-1.144,0.128l-1.139,0.129l-1.133,0.132l-1.128,0.134l-1.123,0.136l-1.117,0.138l-1.112,0.14l-1.107,0.142l-1.101,0.143l-1.096,0.145l-1.091,0.148l-1.085,0.149l-1.08,0.151l-1.074,0.152l-1.07,0.154l-1.064,0.156l-1.058,0.158l-1.053,0.159l-1.048,0.161l-1.042,0.163l-1.037,0.164l-1.032,0.165l-1.026,0.167l-1.021,0.169l-1.016,0.17l-1.01,0.171l-1.005,0.173l-0.999,0.174l-0.994,0.176l-0.989,0.177l-0.983,0.178l-0.978,0.179l-0.972,0.181l-0.968,0.182l-0.961,0.183l-0.957,0.185l-0.95,0.185l-0.946,0.187l-0.94,0.187l-0.935,0.189l-0.929,0.19l-0.924,0.191l-0.918,0.192l-0.913,0.192l-0.908,0.194l-0.902,0.195l-0.897,0.195l-0.891,0.197l-0.886,0.197l-0.881,0.198l-0.875,0.199l-0.87,0.199l-0.864,0.201l-0.859,0.2l-0.853,0.202l-0.848,0.202l-0.843,0.203l-0.837,0.204l-0.832,0.204l-0.826,0.205l-0.82,0.205l-0.816,0.206l-0.81,0.206l-0.804,0.206l-0.799,0.207l-0.794,0.208l-0.788,0.207l-0.782,0.208l-0.777,0.209l-0.772,0.209l-0.766,0.209l-0.761,0.209l-0.755,0.209l-0.75,0.21l-0.744,0.209l-0.739,0.21l-0.733,0.21l-0.728,0.21l-0.723,0.21l-0.716,0.211l-0.712,0.21l-0.706,0.21l-0.7,0.21l-0.695,0.21l-0.69,0.21l-0.684,0.209l-0.678,0.21l-0.673,0.209l-0.667,0.21l-0.662,0.209l-0.657,0.208l-0.651,0.209l-0.645,0.208l-0.64,0.208l-0.635,0.207l-0.628,0.207l-0.624,0.207l-0.618,0.206l-0.612,0.205l-0.607,0.206l-0.601,0.204l-0.596,0.204l-0.59,0.204l-0.585,0.203l-0.579,0.202l-0.573,0.202l-0.568,0.201l-0.563,0.2l-0.557,0.2l-0.551,0.199l-0.546,0.198l-0.541,0.197l-0.534,0.196l-0.529,0.196l-0.524,0.194l-0.518,0.194l-0.513,0.193l-0.507,0.192l-0.501,0.191l-0.496,0.19l-0.49,0.188l-0.485,0.188l-0.479,0.187l-0.474,0.185l-0.468,0.185l-0.462,0.183l-0.457,0.182l-0.451,0.181l-0.446,0.179l-0.44,0.179l-0.434,0.177l-0.429,0.175l-0.423,0.174l-0.418,0.173l-0.412,0.172l-0.407,0.17l-0.4,0.169l-0.396,0.167l-0.389,0.165l-0.385,0.164l-0.378,0.163l-0.373,0.161l-0.367,0.159l-0.361,0.158l-0.353,0.154l-0.699,0.309l-0.672,0.3l-0.65,0.293l-0.628,0.285l-0.605,0.278l-0.582,0.27l-0.56,0.262l-0.537,0.254l-0.514,0.245l-0.492,0.237l-0.469,0.227l-0.447,0.219l-0.148,0.073l0,108.149l0.001,0.77l0.003,0.764l0.006,0.763l0.008,0.764l0.009,0.762l0.013,0.763l0.014,0.762l0.016,0.762l0.019,0.762l0.02,0.761l0.023,0.761l0.025,0.761l0.028,0.76l0.029,0.761l0.031,0.759l0.034,0.76l0.036,0.759l0.038,0.759l0.04,0.758l0.042,0.758l0.044,0.758l0.046,0.757l0.049,0.757l0.05,0.757l0.053,0.757l0.054,0.756l0.057,0.755l0.059,0.756l0.061,0.755l0.063,0.754l0.065,0.755l0.067,0.753l0.069,0.754l0.071,0.753l0.073,0.753l0.076,0.752l0.077,0.752l0.079,0.752l0.082,0.751l0.083,0.751l0.085,0.751l0.088,0.75l0.089,0.75l0.091,0.749l0.094,0.749l0.095,0.748l0.098,0.749l0.099,0.747l0.101,0.748l0.103,0.747l0.106,0.746l0.107,0.746l0.109,0.746l0.111,0.745l0.113,0.745l0.115,0.744l0.117,0.744l0.119,0.744l0.121,0.743l0.123,0.743l0.124,0.742l0.127,0.742l0.128,0.741l0.131,0.741l0.132,0.741l0.134,0.74l0.136,0.74l0.138,0.739l0.14,0.738l0.141,0.739l0.144,0.737l0.145,0.738l0.148,0.737l0.149,0.736l0.151,0.736l0.153,0.735l0.154,0.735l0.157,0.735l0.158,0.734l0.16,0.733l0.162,0.733l0.164,0.733l0.166,0.732l0.167,0.732l0.169,0.731l0.171,0.73l0.173,0.73l0.175,0.73l0.176,0.729l0.178,0.728l0.18,0.728l0.182,0.728l0.183,0.727l0.186,0.726l0.187,0.726l0.188,0.726l0.191,0.725l0.192,0.724l0.194,0.724l0.196,0.723l0.197,0.723l0.199,0.722l0.201,0.722l0.203,0.721l0.204,0.72l0.206,0.72l0.208,0.72l0.209,0.719l0.211,0.718l0.213,0.718l0.214,0.717l0.216,0.716l0.218,0.717l0.219,0.715l0.221,0.715l0.223,0.714l0.224,0.714l0.226,0.713l0.228,0.713l0.229,0.712l0.231,0.711l0.233,0.711l0.234,0.71l0.236,0.71l0.237,0.709l0.239,0.708l0.241,0.708l0.242,0.707l0.244,0.707l0.245,0.705l0.247,0.706l0.248,0.704l0.25,0.704l0.252,0.704l0.253,0.703l0.255,0.702l0.256,0.701l0.258,0.701l0.26,0.7l0.261,0.7l0.262,0.699l0.264,0.698l0.265,0.698l0.267,0.697l0.269,0.696l0.27,0.696l0.272,0.695l0.273,0.694l0.274,0.694l0.276,0.693l0.278,0.692l0.279,0.692l0.28,0.691l0.282,0.69l0.283,0.69l0.285,0.689l0.286,0.688l0.288,0.687l0.289,0.687l0.291,0.686l0.292,0.686l0.293,0.684l0.295,0.684l0.297,0.684l0.297,0.682l0.3,0.682l0.3,0.681l0.302,0.681l0.303,0.679l0.305,0.679l0.306,0.678l0.308,0.678l0.308,0.677l0.311,0.676l0.311,0.675l0.313,0.674l0.314,0.674l0.316,0.673l0.317,0.672l0.318,0.672l0.32,0.671l0.321,0.67l0.322,0.669l0.324,0.668l0.325,0.668l0.326,0.667l0.328,0.666l0.329,0.665l0.33,0.665l0.331,0.664l0.333,0.663l0.334,0.662l0.335,0.661l0.337,0.661l0.337,0.66l0.34,0.659l0.34,0.658l0.341,0.658l0.343,0.656l0.344,0.656l0.346,0.655l0.346,0.654l0.348,0.654l0.349,0.652l0.35,0.652l0.351,0.651l0.353,0.65l0.354,0.649l0.355,0.648l0.356,0.648l0.357,0.647l0.359,0.645l0.359,0.645l0.361,0.644l0.362,0.644l0.363,0.642l0.365,0.642l0.365,0.64l0.367,0.64l0.367,0.639l0.369,0.638l0.37,0.637l0.371,0.637l0.373,0.635l0.373,0.635l0.375,0.634l0.375,0.632l0.377,0.632l0.378,0.631l0.378,0.63l0.38,0.63l0.381,0.628l0.383,0.627l0.383,0.627l0.384,0.625l0.385,0.625l0.387,0.624l0.387,0.623l0.388,0.622l0.39,0.621l0.39,0.62l0.392,0.619l0.392,0.618l0.394,0.617l0.394,0.617l0.396,0.615l0.397,0.615l0.397,0.613l0.399,0.613l0.399,0.611l0.401,0.611l0.401,0.61l0.403,0.608l0.403,0.608l0.405,0.607l0.405,0.606l0.406,0.605l0.407,0.603l0.409,0.603l0.409,0.602l0.41,0.601l0.411,0.6l0.412,0.599l0.412,0.598l0.414,0.597l0.415,0.596l0.415,0.595l0.417,0.594l0.417,0.593l0.418,0.592l0.419,0.591l0.42,0.59l0.421,0.589l0.422,0.588l0.422,0.586l0.424,0.586l0.424,0.585l0.425,0.584l0.426,0.583l0.427,0.581l0.427,0.581l0.428,0.58l0.43,0.578l0.43,0.578l0.431,0.576l0.431,0.576l0.432,0.574l0.434,0.573l0.434,0.573l0.435,0.571l0.435,0.57l0.436,0.569l0.437,0.568l0.438,0.567l0.439,0.566l0.439,0.564l0.44,0.564l0.441,0.563l0.442,0.561l0.442,0.56l0.443,0.56l0.444,0.558l0.444,0.557l0.445,0.556l0.446,0.555l0.447,0.554l0.447,0.552l0.448,0.552l0.449,0.55l0.449,0.549l0.45,0.549l0.451,0.547l0.451,0.545l0.452,0.545l0.453,0.544l0.453,0.542l0.454,0.542l0.454,0.54l0.455,0.539l0.456,0.538l0.457,0.537l0.457,0.535l0.457,0.535l0.459,0.533l0.458,0.532l0.46,0.531l0.46,0.53l0.46,0.529l0.462,0.527l0.461,0.526l0.463,0.526l0.463,0.523l0.463,0.523l0.464,0.522l0.465,0.52l0.465,0.519l0.465,0.518l0.467,0.517l0.466,0.516l0.467,0.514l0.468,0.513l0.468,0.512l0.469,0.511l0.469,0.509l0.47,0.508l0.47,0.507l0.471,0.506l0.471,0.505l0.472,0.503l0.472,0.502l0.473,0.501l0.473,0.5l0.473,0.498l0.474,0.498l0.475,0.496l0.474,0.494l0.476,0.494l0.475,0.492l0.476,0.491l0.477,0.489l0.477,0.489l0.477,0.487l0.478,0.486l0.478,0.484l0.479,0.484l0.479,0.482l0.479,0.48l0.479,0.48l0.481,0.478l0.48,0.477l0.481,0.476l0.481,0.474l0.481,0.473l0.482,0.472l0.482,0.47l0.483,0.469l0.482,0.468l0.483,0.466l0.484,0.466l0.484,0.463l0.484,0.463l0.484,0.461l0.485,0.46l0.485,0.459l0.485,0.457l0.485,0.456l0.486,0.454l0.486,0.453l0.486,0.452l0.487,0.451l0.487,0.449l0.487,0.448l0.487,0.446l0.487,0.446l0.488,0.443l0.488,0.443l0.488,0.441l0.489,0.439l0.488,0.439l0.489,0.437l0.489,0.435l0.489,0.434l0.49,0.433l0.489,0.432l0.49,0.43l0.49,0.428l0.49,0.428l0.49,0.425l0.491,0.425l0.49,0.423l0.491,0.422l0.491,0.42l0.491,0.419l0.491,0.417l0.491,0.416l0.491,0.415l0.492,0.413l0.491,0.412l0.492,0.41l0.492,0.409l0.491,0.407l0.492,0.406l0.493,0.405l0.492,0.403l0.492,0.402l0.492,0.4l0.492,0.399l0.492,0.397l0.493,0.396l0.492,0.395l0.492,0.393l0.493,0.391l0.493,0.391l0.492,0.388l0.493,0.387l0.492,0.386l0.493,0.384l0.492,0.383l0.493,0.381l0.492,0.38l0.493,0.378l0.492,0.377l0.492,0.375l0.493,0.374l0.492,0.373l0.493,0.37l0.492,0.37l0.492,0.367l0.492,0.367l0.492,0.365l0.492,0.363l0.492,0.362l0.492,0.36l0.492,0.359l0.491,0.357l0.492,0.355l0.491,0.355l0.491,0.352l0.492,0.351l0.491,0.35l0.491,0.348l0.49,0.346l0.491,0.345l0.49,0.344l0.491,0.342l0.49,0.34l0.49,0.338l0.49,0.338l0.49,0.335l0.489,0.334l0.489,0.333l0.49,0.331l0.489,0.329l0.488,0.328l0.489,0.326l0.488,0.324l0.488,0.323l0.488,0.322l0.487,0.32l0.488,0.318l0.487,0.317l0.487,0.314l0.486,0.314l0.487,0.312l0.486,0.31l0.486,0.309l0.485,0.307l0.486,0.305l0.485,0.304l0.484,0.302l0.485,0.301l0.484,0.299l0.483,0.297l0.484,0.296l0.483,0.294l0.483,0.292l0.482,0.291l0.482,0.289l0.482,0.287l0.481,0.286l0.481,0.285l0.481,0.282l0.48,0.281l0.451,0.262l0.423,-0.242l0.433,-0.25l0.434,-0.251l0.434,-0.252l0.435,-0.254l0.436,-0.256l0.436,-0.258l0.437,-0.259l0.438,-0.261l0.438,-0.262l0.439,-0.264l0.44,-0.266l0.44,-0.267l0.441,-0.269l0.442,-0.271l0.442,-0.272l0.443,-0.274l0.444,-0.276l0.444,-0.277l0.444,-0.278l0.445,-0.28l0.446,-0.282l0.447,-0.284l0.447,-0.285l0.447,-0.287l0.448,-0.288l0.449,-0.29l0.449,-0.292l0.45,-0.293l0.45,-0.295l0.451,-0.296l0.451,-0.298l0.452,-0.3l0.452,-0.301l0.453,-0.303l0.453,-0.304l0.453,-0.306l0.455,-0.307l0.454,-0.309l0.456,-0.311l0.455,-0.312l0.456,-0.314l0.457,-0.316l0.456,-0.316l0.458,-0.319l0.458,-0.32l0.458,-0.322l0.458,-0.323l0.459,-0.325l0.46,-0.326l0.459,-0.328l0.461,-0.33l0.46,-0.331l0.461,-0.332l0.461,-0.334l0.462,-0.336l0.462,-0.337l0.462,-0.339l0.463,-0.34l0.462,-0.342l0.464,-0.343l0.463,-0.345l0.464,-0.347l0.464,-0.348l0.465,-0.349l0.465,-0.351l0.465,-0.353l0.465,-0.354l0.466,-0.356l0.466,-0.357l0.466,-0.358l0.466,-0.361l0.467,-0.361l0.467,-0.364l0.467,-0.364l0.468,-0.367l0.467,-0.367l0.468,-0.37l0.468,-0.37l0.468,-0.372l0.469,-0.374l0.468,-0.375l0.469,-0.377l0.469,-0.379l0.469,-0.379l0.469,-0.382l0.47,-0.382l0.469,-0.384l0.47,-0.386l0.47,-0.387l0.47,-0.389l0.47,-0.39l0.471,-0.391l0.47,-0.394l0.47,-0.394l0.471,-0.396l0.471,-0.398l0.471,-0.399l0.471,-0.4l0.47,-0.402l0.471,-0.403l0.472,-0.405l0.471,-0.406l0.471,-0.408l0.471,-0.409l0.471,-0.411l0.472,-0.412l0.471,-0.413l0.472,-0.415l0.471,-0.417l0.471,-0.417l0.472,-0.42l0.471,-0.42l0.471,-0.422l0.472,-0.424l0.471,-0.425l0.472,-0.427l0.471,-0.427l0.471,-0.43l0.471,-0.43l0.471,-0.432l0.472,-0.434l0.471,-0.435l0.47,-0.436l0.471,-0.438l0.471,-0.439l0.471,-0.441l0.471,-0.442l0.47,-0.443l0.47,-0.445l0.471,-0.446l0.47,-0.448l0.47,-0.449l0.47,-0.451l0.469,-0.451l0.47,-0.454l0.47,-0.454l0.469,-0.456l0.469,-0.458l0.469,-0.458l0.469,-0.461l0.469,-0.461l0.468,-0.463l0.468,-0.464l0.468,-0.466l0.468,-0.467l0.468,-0.468l0.467,-0.47l0.467,-0.471l0.467,-0.473l0.467,-0.474l0.466,-0.475l0.467,-0.476l0.466,-0.478l0.465,-0.48l0.466,-0.48l0.465,-0.482l0.465,-0.484l0.464,-0.484l0.465,-0.486l0.464,-0.488l0.463,-0.488l0.464,-0.49l0.463,-0.492l0.463,-0.493l0.462,-0.494l0.462,-0.495l0.462,-0.497l0.461,-0.498l0.461,-0.499l0.461,-0.501l0.46,-0.502l0.46,-0.503l0.46,-0.505l0.459,-0.506l0.459,-0.507l0.458,-0.509l0.458,-0.51l0.458,-0.511l0.457,-0.513l0.457,-0.513l0.456,-0.515l0.456,-0.517l0.455,-0.517l0.456,-0.52l0.454,-0.52l0.454,-0.521l0.454,-0.523l0.453,-0.524l0.453,-0.526l0.452,-0.527l0.452,-0.528l0.451,-0.529l0.451,-0.531l0.45,-0.532l0.45,-0.533l0.449,-0.534l0.449,-0.536l0.448,-0.537l0.448,-0.538l0.447,-0.54l0.447,-0.54l0.446,-0.542l0.445,-0.544l0.445,-0.544l0.444,-0.546l0.444,-0.547l0.443,-0.548l0.443,-0.55l0.442,-0.551l0.441,-0.552l0.441,-0.553l0.44,-0.554l0.44,-0.556l0.439,-0.557l0.438,-0.558l0.438,-0.56l0.437,-0.56l0.436,-0.562l0.436,-0.563l0.435,-0.565l0.434,-0.565l0.434,-0.567l0.433,-0.568l0.433,-0.569l0.431,-0.571l0.431,-0.572l0.431,-0.573l0.429,-0.574l0.429,-0.575l0.428,-0.576l0.428,-0.578l0.427,-0.579l0.426,-0.58l0.425,-0.582l0.424,-0.582l0.424,-0.584l0.423,-0.585l0.422,-0.586l0.422,-0.587l0.42,-0.589l0.42,-0.589l0.419,-0.591l0.418,-0.592l0.418,-0.593l0.417,-0.595l0.415,-0.595l0.416,-0.597l0.414,-0.598l0.413,-0.599l0.413,-0.6l0.411,-0.601l0.411,-0.603l0.41,-0.604l0.409,-0.605l0.409,-0.606l0.407,-0.607l0.407,-0.608l0.405,-0.61l0.405,-0.61l0.404,-0.612l0.403,-0.613l0.402,-0.614l0.401,-0.615l0.4,-0.617l0.399,-0.617l0.399,-0.619l0.397,-0.62l0.397,-0.621l0.395,-0.622l0.395,-0.622l0.393,-0.625l0.393,-0.625l0.391,-0.627l0.391,-0.628l0.39,-0.628l0.389,-0.63l0.387,-0.631l0.387,-0.632l0.386,-0.633l0.384,-0.635l0.384,-0.635l0.383,-0.637l0.381,-0.637l0.381,-0.639l0.379,-0.64l0.379,-0.641l0.377,-0.642l0.376,-0.643l0.376,-0.644l0.374,-0.645l0.373,-0.647l0.372,-0.647l0.371,-0.649l0.37,-0.65l0.369,-0.65l0.367,-0.652l0.367,-0.653l0.365,-0.654l0.365,-0.655l0.363,-0.656l0.362,-0.657l0.361,-0.658l0.359,-0.66l0.359,-0.66l0.357,-0.661l0.357,-0.663l0.355,-0.663l0.354,-0.665l0.352,-0.666l0.352,-0.666l0.35,-0.668l0.349,-0.669l0.348,-0.669l0.347,-0.671l0.345,-0.672l0.345,-0.673l0.343,-0.674l0.341,-0.675l0.341,-0.676l0.339,-0.677l0.338,-0.678l0.337,-0.68l0.336,-0.68l0.334,-0.681l0.333,-0.682l0.332,-0.683l0.33,-0.685l0.329,-0.685l0.328,-0.686l0.326,-0.687l0.326,-0.689l0.324,-0.689l0.322,-0.69l0.321,-0.692l0.32,-0.692l0.319,-0.693l0.317,-0.695l0.316,-0.695l0.314,-0.696l0.313,-0.698l0.312,-0.698l0.311,-0.699l0.308,-0.7l0.308,-0.702l0.306,-0.702l0.305,-0.703l0.304,-0.704l0.302,-0.706l0.3,-0.706l0.299,-0.707l0.298,-0.708l0.296,-0.709l0.295,-0.71l0.294,-0.711l0.292,-0.712l0.29,-0.713l0.289,-0.714l0.288,-0.715l0.286,-0.716l0.285,-0.717l0.283,-0.717l0.282,-0.719l0.28,-0.72l0.278,-0.72l0.277,-0.722l0.276,-0.722l0.274,-0.724l0.273,-0.724l0.271,-0.726l0.269,-0.726l0.268,-0.727l0.267,-0.728l0.265,-0.729l0.263,-0.73l0.262,-0.731l0.26,-0.732l0.259,-0.733l0.257,-0.733l0.255,-0.735l0.254,-0.736l0.252,-0.736l0.251,-0.737l0.249,-0.739l0.247,-0.739l0.246,-0.74l0.244,-0.741l0.243,-0.742l0.241,-0.743l0.239,-0.744l0.238,-0.744l0.236,-0.746l0.234,-0.746l0.233,-0.748l0.231,-0.748l0.229,-0.749l0.227,-0.75l0.226,-0.751l0.224,-0.752l0.223,-0.752l0.221,-0.754l0.219,-0.754l0.217,-0.756l0.216,-0.756l0.214,-0.757l0.212,-0.758l0.21,-0.759l0.209,-0.76l0.207,-0.76l0.205,-0.762l0.203,-0.762l0.202,-0.763l0.2,-0.764l0.198,-0.765l0.196,-0.766l0.195,-0.767l0.192,-0.767l0.191,-0.769l0.189,-0.769l0.187,-0.77l0.186,-0.771l0.183,-0.771l0.182,-0.773l0.18,-0.773l0.178,-0.775l0.177,-0.775l0.174,-0.776l0.172,-0.777l0.171,-0.777l0.169,-0.779l0.167,-0.779l0.165,-0.78l0.163,-0.781l0.161,-0.782l0.159,-0.783l0.158,-0.783l0.155,-0.785l0.154,-0.785l0.152,-0.786l0.149,-0.787l0.148,-0.787l0.146,-0.788l0.144,-0.79l0.142,-0.79l0.14,-0.79l0.138,-0.792l0.136,-0.792l0.134,-0.794l0.132,-0.794l0.13,-0.795l0.128,-0.795l0.127,-0.797l0.124,-0.797l0.122,-0.798l0.12,-0.799l0.118,-0.8l0.116,-0.8l0.114,-0.801l0.112,-0.802l0.11,-0.803l0.108,-0.804l0.106,-0.804l0.103,-0.805l0.102,-0.806l0.1,-0.807l0.097,-0.808l0.096,-0.808l0.093,-0.809l0.091,-0.81l0.09,-0.81l0.087,-0.812l0.085,-0.812l0.083,-0.813l0.08,-0.813l0.079,-0.815l0.076,-0.815l0.075,-0.816l0.072,-0.817l0.07,-0.817l0.068,-0.819l0.065,-0.819l0.064,-0.819l0.061,-0.821l0.059,-0.821l0.057,-0.822l0.055,-0.823l0.053,-0.823l0.05,-0.825l0.048,-0.825l0.046,-0.826l0.044,-0.826l0.041,-0.827l0.04,-0.828l0.037,-0.829l0.035,-0.829l0.032,-0.83l0.03,-0.831l0.028,-0.832l0.026,-0.832l0.024,-0.834l0.021,-0.833l0.019,-0.835l0.016,-0.837l0.03,-1.701l0.029,-1.761l0.026,-1.815l0.024,-1.867l0.023,-1.917l0.021,-1.963l0.02,-2.007l0.018,-2.048l0.016,-2.086l0.015,-2.121l0.013,-2.155l0.012,-2.184l0.01,-2.212l0.009,-2.237l0.008,-2.258l0.006,-2.278l0.006,-2.295l0.004,-2.308l0.003,-2.32l0.001,-2.328l0.001,-2.334l0,-2.337l-0.001,-2.337l-0.002,-2.336l-0.003,-2.331l-0.004,-2.323l-0.004,-2.312l-0.005,-2.3l-0.012,-4.551l-0.015,-4.466l-0.016,-4.362l-0.019,-4.235l-0.019,-4.087l-0.02,-3.918l-0.021,-3.727l-0.021,-3.515l-0.02,-3.281l-0.02,-3.027l-0.019,-2.75l-0.018,-2.453l-0.019,-2.55l-0.211,-0.107l-0.439,-0.222l-0.462,-0.232l-0.485,-0.24l-0.507,-0.25l-0.529,-0.257l-0.551,-0.267l-0.574,-0.274l-0.596,-0.282l-0.619,-0.29l-0.641,-0.298l-0.667,-0.307l-0.336,-0.153l-0.346,-0.157l-0.351,-0.159l-0.357,-0.16l-0.362,-0.162l-0.368,-0.164l-0.374,-0.165l-0.379,-0.167l-0.384,-0.168l-0.39,-0.17l-0.396,-0.171l-0.401,-0.173l-0.407,-0.175l-0.413,-0.176l-0.418,-0.177l-0.423,-0.178l-0.429,-0.18l-0.435,-0.182l-0.44,-0.182l-0.446,-0.184l-0.451,-0.185l-0.457,-0.186l-0.462,-0.188l-0.468,-0.189l-0.474,-0.19l-0.479,-0.19l-0.484,-0.192l-0.491,-0.194l-0.495,-0.194l-0.501,-0.195l-0.507,-0.196l-0.512,-0.197l-0.518,-0.198l-0.523,-0.199l-0.529,-0.2l-0.535,-0.2l-0.54,-0.202l-0.545,-0.202l-0.551,-0.203l-0.556,-0.204l-0.562,-0.204l-0.568,-0.205l-0.573,-0.206l-0.579,-0.206l-0.584,-0.207l-0.589,-0.208l-0.595,-0.208l-0.601,-0.209l-0.606,-0.209l-0.612,-0.21l-0.617,-0.21l-0.623,-0.211l-0.628,-0.211l-0.633,-0.211l-0.639,-0.212l-0.645,-0.212l-0.65,-0.212l-0.656,-0.213l-0.661,-0.212l-0.667,-0.213l-0.672,-0.214l-0.678,-0.213l-0.683,-0.214l-0.689,-0.213l-0.694,-0.214l-0.699,-0.214l-0.705,-0.213l-0.711,-0.214l-0.716,-0.214l-0.722,-0.214l-0.727,-0.213l-0.732,-0.214l-0.738,-0.213l-0.744,-0.213l-0.749,-0.213l-0.754,-0.213l-0.76,-0.213l-0.765,-0.212l-0.771,-0.212l-0.777,-0.212l-0.781,-0.211l-0.788,-0.211l-0.792,-0.211l-0.799,-0.21l-0.803,-0.21l-0.809,-0.209l-0.815,-0.209l-0.82,-0.208l-0.825,-0.208l-0.831,-0.207l-0.837,-0.206l-0.842,-0.206l-0.847,-0.205l-0.853,-0.205l-0.858,-0.204l-0.864,-0.203l-0.869,-0.202l-0.875,-0.201l-0.88,-0.201l-0.885,-0.2l-0.891,-0.199l-0.896,-0.198l-0.902,-0.197l-0.907,-0.196l-0.913,-0.195l-0.918,-0.194l-0.924,-0.194l-0.929,-0.192l-0.934,-0.191l-0.94,-0.19l-0.945,-0.188l-0.951,-0.188l-0.956,-0.186l-0.962,-0.185l-0.967,-0.184l-0.972,-0.183l-0.978,-0.181l-0.983,-0.18l-0.989,-0.179l-0.994,-0.177l-1,-0.176l-1.005,-0.175l-1.01,-0.173l-1.016,-0.171l-1.021,-0.17l-1.027,-0.169l-1.032,-0.167l-1.037,-0.165l-1.043,-0.164l-1.048,-0.162l-1.054,-0.16l-1.059,-0.159l-1.064,-0.157l-1.07,-0.155l-1.076,-0.154l-1.08,-0.151l-1.086,-0.15l-1.092,-0.148l-1.097,-0.146l-1.102,-0.144l-1.108,-0.143l-1.113,-0.14l-1.118,-0.138l-1.124,-0.137l-1.129,-0.134l-1.135,-0.132l-1.14,-0.13l-1.146,-0.128l-1.15,-0.126l-1.157,-0.124l-1.161,-0.121l-1.167,-0.119l-1.172,-0.117l-1.178,-0.115l-1.183,-0.112l-1.189,-0.11l-1.194,-0.108l-1.199,-0.105l-1.204,-0.103l-1.21,-0.101l-1.216,-0.098l-1.221,-0.095l-1.226,-0.093l-1.234,-0.091l-0.615,-0.044l-0.619,-0.043l-0.62,-0.043l-0.622,-0.043l-0.623,-0.041l-0.625,-0.041l-0.626,-0.041l-0.627,-0.039l-0.628,-0.039l-0.63,-0.039l-0.631,-0.037l-0.633,-0.037l-0.634,-0.036l-0.635,-0.036l-0.636,-0.035l-0.638,-0.034l-0.639,-0.034l-0.641,-0.032l-0.642,-0.033l-0.643,-0.031l-0.645,-0.031l-0.646,-0.03l-0.647,-0.029l-0.648,-0.028l-0.65,-0.028l-0.652,-0.027l-0.652,-0.027l-0.654,-0.025l-0.655,-0.025l-0.657,-0.024l-0.658,-0.024l-0.659,-0.022l-0.661,-0.022l-0.662,-0.022l-0.663,-0.02l-0.665,-0.02l-0.666,-0.019l-0.667,-0.018l-0.669,-0.017l-0.67,-0.017l-0.671,-0.015l-0.673,-0.015l-0.674,-0.015l-0.675,-0.013l-0.677,-0.013l-0.678,-0.012l-0.679,-0.011l-0.681,-0.01l-0.682,-0.009l-0.683,-0.009l-0.685,-0.008l-0.686,-0.007l-0.687,-0.006l-0.689,-0.006l-0.69,-0.004l-0.691,-0.004l-0.693,-0.003l-0.694,-0.002l-0.695,-0.001l-0.697,-0.001l-0.697,0.001Z"/></svg>