<?xml version="1.0" encoding="UTF-8" standalone="no"?>
<!DOCTYPE svg PUBLIC "-//W3C//DTD SVG 1.1//EN" "http://www.w3.org/Graphics/SVG/1.1/DTD/svg11.dtd">
<svg width="100%" height="100%" viewBox="0 0 512 256" version="1.1" xmlns="http://www.w3.org/2000/svg" xmlns:xlink="http://www.w3.org/1999/xlink" xml:space="preserve" xmlns:serif="http://www.serif.com/" style="fill-rule:evenodd;clip-rule:evenodd;stroke-linejoin:round;stroke-miterlimit:2;">
    <g id="Ebene1" transform="matrix(1.08267,0,0,1.08267,-22.561,-9.97992)">
        <g transform="matrix(1,0,0,0.998185,0,0.0499663)">
            <ellipse cx="256.508" cy="120.884" rx="233.467" ry="93.353"/>
        </g>
        <g transform="matrix(0.95791,0,0,0.896552,10.7964,11.997)">
            <ellipse cx="256.508" cy="120.884" rx="233.467" ry="93.353" style="fill:white;"/>
        </g>
        <g transform="matrix(0.928477,0,0,0.8216,17.838,21.2613)">
            <ellipse cx="256.508" cy="120.884" rx="233.467" ry="93.353"/>
        </g>
        <path id="F" d="M146.375,117.875C148.728,117.623 150.212,119.248 145.125,121.875C141.503,123.745 134.89,130.268 135.625,140.875C136.034,146.78 140.04,153.382 148.875,153.125C157.482,152.875 165.946,148.166 175.625,138.375C183.295,130.616 197.875,109.625 197.875,109.625C197.875,109.625 185.625,110.125 182.125,113.125C178.625,116.125 176.625,114.875 179.125,111.625C181.625,108.375 187.125,105.625 191.875,105.125C196.625,104.625 201.375,104.125 201.375,104.125C201.375,104.125 211.549,90.018 216.625,84.125C222.839,76.911 235.125,68.625 235.125,68.625C235.125,68.625 216.125,63.875 204.125,63.875C169.839,63.875 163.875,80.625 163.375,87.125C162.875,93.625 166.375,95.625 170.875,95.625C178.804,95.625 187.625,87.125 189.875,82.875C190.926,80.889 193.403,82.932 192.375,85.875C190.005,92.659 180.125,108.375 167.875,107.875C155.625,107.375 151.81,97.627 151.625,89.875C151.375,79.411 161.125,59.375 203.875,59.375C237.911,59.375 254.518,68.125 286.125,68.125C306.877,68.125 314.281,64.875 319.625,64.875C323.161,64.875 324.625,69.375 318.875,73.125C313.125,76.875 302.625,82.375 290.125,82.625C269.04,83.047 237.375,69.125 237.375,69.125C237.375,69.125 237.268,72.054 235.375,73.375C232.702,75.241 224.375,83.875 220.125,89.375C215.875,94.875 211.125,103.375 211.125,103.375C211.125,103.375 224.137,102.512 230.125,101.375C229.542,98.81 228.491,87.054 237.625,87.125C242.631,87.164 243.711,90.876 243.625,94.125C243.482,99.518 234.625,104.625 234.625,104.625C234.625,104.625 234.23,106.65 238.875,108.125C240.35,108.593 238.411,110.054 237.125,109.875C235.009,109.581 232.688,108.544 231.625,105.625C225.256,107.25 207.625,108.625 207.625,108.625C207.625,108.625 190.625,139.625 183.375,147.625C176.125,155.625 167.631,168.429 151.125,168.625C133.054,168.839 125.001,155.589 124.625,143.875C124.269,132.809 135.055,119.086 146.375,117.875Z" style="fill:white;"/>
        <clipPath id="_clip1">
            <path d="M146.375,117.875C148.728,117.623 150.212,119.248 145.125,121.875C141.503,123.745 134.89,130.268 135.625,140.875C136.034,146.78 140.04,153.382 148.875,153.125C157.482,152.875 165.946,148.166 175.625,138.375C183.295,130.616 197.875,109.625 197.875,109.625C197.875,109.625 185.625,110.125 182.125,113.125C178.625,116.125 176.625,114.875 179.125,111.625C181.625,108.375 187.125,105.625 191.875,105.125C196.625,104.625 201.375,104.125 201.375,104.125C201.375,104.125 211.549,90.018 216.625,84.125C222.839,76.911 235.125,68.625 235.125,68.625C235.125,68.625 216.125,63.875 204.125,63.875C169.839,63.875 163.875,80.625 163.375,87.125C162.875,93.625 166.375,95.625 170.875,95.625C178.804,95.625 187.625,87.125 189.875,82.875C190.926,80.889 193.403,82.932 192.375,85.875C190.005,92.659 180.125,108.375 167.875,107.875C155.625,107.375 151.81,97.627 151.625,89.875C151.375,79.411 161.125,59.375 203.875,59.375C237.911,59.375 254.518,68.125 286.125,68.125C306.877,68.125 314.281,64.875 319.625,64.875C323.161,64.875 324.625,69.375 318.875,73.125C313.125,76.875 302.625,82.375 290.125,82.625C269.04,83.047 237.375,69.125 237.375,69.125C237.375,69.125 237.268,72.054 235.375,73.375C232.702,75.241 224.375,83.875 220.125,89.375C215.875,94.875 211.125,103.375 211.125,103.375C211.125,103.375 224.137,102.512 230.125,101.375C229.542,98.81 228.491,87.054 237.625,87.125C242.631,87.164 243.711,90.876 243.625,94.125C243.482,99.518 234.625,104.625 234.625,104.625C234.625,104.625 234.23,106.65 238.875,108.125C240.35,108.593 238.411,110.054 237.125,109.875C235.009,109.581 232.688,108.544 231.625,105.625C225.256,107.25 207.625,108.625 207.625,108.625C207.625,108.625 190.625,139.625 183.375,147.625C176.125,155.625 167.631,168.429 151.125,168.625C133.054,168.839 125.001,155.589 124.625,143.875C124.269,132.809 135.055,119.086 146.375,117.875Z"/>
        </clipPath>
        <g clip-path="url(#_clip1)">
            <path d="M233.843,94.121C234.729,90.189 242.392,90.353 238.843,95.921C234.352,102.966 232.244,101.215 233.843,94.121Z"/>
        </g>
        <path d="M199.677,161.194C198.708,161.889 197.361,161.682 196.645,160.728C196.456,160.478 196.264,160.222 196.079,159.975C195.45,159.136 195.606,157.949 196.429,157.3C198.686,155.569 202.837,152.198 204.426,149.771C208.76,143.152 210.236,136.438 215.093,129.438C220.349,121.863 228.236,116.105 235.593,116.105C239.521,116.105 241.26,118.271 240.76,119.938C240.26,121.605 237.181,121.346 232.26,123.938C221.545,129.581 216.76,141.771 216.593,148.105C216.426,154.438 218.76,159.938 225.093,159.771C238.857,159.409 247.593,142.771 247.593,132.105C247.593,127.326 246.168,123.907 245.095,122.01C244.431,121.016 244.533,119.697 245.342,118.818C245.702,118.341 246.14,117.865 246.533,117.438C246.864,117.078 247.33,116.87 247.819,116.865C248.309,116.859 248.779,117.057 249.118,117.41C250.948,119.489 254.093,123.753 254.093,129.105C254.093,132.271 254.26,135.605 254.26,135.605C254.26,135.605 259.553,127.968 264.26,123.105C269.283,117.914 273.593,113.938 278.426,114.271C286.691,114.841 287.64,120.01 288.093,124.438C290.26,121.438 296.073,115.667 302.426,115.605C309.76,115.533 311.76,120.756 311.76,124.271C311.76,127.787 308.285,132.817 303.426,132.771C298.567,132.725 296.807,129.819 295.093,126.105C291.236,129.105 290.082,131.452 290.426,134.605C291.021,140.057 293.76,143.271 298.76,143.105C306.043,142.862 310.426,139.438 319.426,129.605C328.426,119.771 335.752,115.771 343.093,115.771C351.712,115.771 354.474,120.962 356.76,126.271C360.698,118.661 371.707,98.678 374.679,93.292C375.14,92.455 376.016,91.93 376.972,91.918C379.243,91.889 383.491,91.833 386.078,91.8C386.534,91.794 386.959,92.029 387.195,92.419C387.431,92.809 387.444,93.294 387.228,93.696C381.795,103.831 356.655,150.688 354.426,154.105C351.926,157.938 353.926,159.771 356.26,160.105C358.593,160.438 364.426,155.938 368.426,152.438C371.333,149.895 375.648,144.975 377.789,142.476C378.531,141.614 379.812,141.469 380.727,142.144C380.728,142.143 380.729,142.144 380.729,142.144C381.137,142.444 381.405,142.896 381.474,143.397C381.543,143.898 381.406,144.405 381.095,144.804C378.12,148.665 370.27,158.665 366.926,160.938C362.76,163.771 357.593,167.438 352.26,167.605C343.911,167.866 344.545,164.343 342.926,160.771C339.021,164.343 331.093,167.271 323.593,167.438C311.229,167.713 309.91,156.474 310.426,147.271C306.891,149.037 305.593,149.771 299.26,149.938C289.639,150.191 286.879,145.152 284.593,138.605C281.726,144.478 273.864,160.806 271.366,165.998C270.892,166.982 269.902,167.613 268.81,167.627C266.423,167.656 262.181,167.709 259.509,167.742C259.004,167.748 258.534,167.487 258.273,167.055C258.012,166.623 257.999,166.086 258.239,165.642C261.367,159.842 270.039,143.826 273.426,138.271C277.593,131.438 280.239,124.214 274.926,123.771C270.926,123.438 265.26,129.771 261.593,134.271C257.926,138.771 252.593,148.105 246.593,155.605C240.593,163.105 232.855,168.271 224.76,168.271C213.379,168.271 208.879,160.248 207.426,155.105C204.603,157.551 201.54,159.844 199.677,161.194Z" style="fill:white;"/>
        <clipPath id="_clip2">
            <path d="M199.677,161.194C198.708,161.889 197.361,161.682 196.645,160.728C196.456,160.478 196.264,160.222 196.079,159.975C195.45,159.136 195.606,157.949 196.429,157.3C198.686,155.569 202.837,152.198 204.426,149.771C208.76,143.152 210.236,136.438 215.093,129.438C220.349,121.863 228.236,116.105 235.593,116.105C239.521,116.105 241.26,118.271 240.76,119.938C240.26,121.605 237.181,121.346 232.26,123.938C221.545,129.581 216.76,141.771 216.593,148.105C216.426,154.438 218.76,159.938 225.093,159.771C238.857,159.409 247.593,142.771 247.593,132.105C247.593,127.326 246.168,123.907 245.095,122.01C244.431,121.016 244.533,119.697 245.342,118.818C245.702,118.341 246.14,117.865 246.533,117.438C246.864,117.078 247.33,116.87 247.819,116.865C248.309,116.859 248.779,117.057 249.118,117.41C250.948,119.489 254.093,123.753 254.093,129.105C254.093,132.271 254.26,135.605 254.26,135.605C254.26,135.605 259.553,127.968 264.26,123.105C269.283,117.914 273.593,113.938 278.426,114.271C286.691,114.841 287.64,120.01 288.093,124.438C290.26,121.438 296.073,115.667 302.426,115.605C309.76,115.533 311.76,120.756 311.76,124.271C311.76,127.787 308.285,132.817 303.426,132.771C298.567,132.725 296.807,129.819 295.093,126.105C291.236,129.105 290.082,131.452 290.426,134.605C291.021,140.057 293.76,143.271 298.76,143.105C306.043,142.862 310.426,139.438 319.426,129.605C328.426,119.771 335.752,115.771 343.093,115.771C351.712,115.771 354.474,120.962 356.76,126.271C360.698,118.661 371.707,98.678 374.679,93.292C375.14,92.455 376.016,91.93 376.972,91.918C379.243,91.889 383.491,91.833 386.078,91.8C386.534,91.794 386.959,92.029 387.195,92.419C387.431,92.809 387.444,93.294 387.228,93.696C381.795,103.831 356.655,150.688 354.426,154.105C351.926,157.938 353.926,159.771 356.26,160.105C358.593,160.438 364.426,155.938 368.426,152.438C371.333,149.895 375.648,144.975 377.789,142.476C378.531,141.614 379.812,141.469 380.727,142.144C380.728,142.143 380.729,142.144 380.729,142.144C381.137,142.444 381.405,142.896 381.474,143.397C381.543,143.898 381.406,144.405 381.095,144.804C378.12,148.665 370.27,158.665 366.926,160.938C362.76,163.771 357.593,167.438 352.26,167.605C343.911,167.866 344.545,164.343 342.926,160.771C339.021,164.343 331.093,167.271 323.593,167.438C311.229,167.713 309.91,156.474 310.426,147.271C306.891,149.037 305.593,149.771 299.26,149.938C289.639,150.191 286.879,145.152 284.593,138.605C281.726,144.478 273.864,160.806 271.366,165.998C270.892,166.982 269.902,167.613 268.81,167.627C266.423,167.656 262.181,167.709 259.509,167.742C259.004,167.748 258.534,167.487 258.273,167.055C258.012,166.623 257.999,166.086 258.239,165.642C261.367,159.842 270.039,143.826 273.426,138.271C277.593,131.438 280.239,124.214 274.926,123.771C270.926,123.438 265.26,129.771 261.593,134.271C257.926,138.771 252.593,148.105 246.593,155.605C240.593,163.105 232.855,168.271 224.76,168.271C213.379,168.271 208.879,160.248 207.426,155.105C204.603,157.551 201.54,159.844 199.677,161.194Z"/>
        </clipPath>
        <g clip-path="url(#_clip2)">
            <path d="M327.143,134.002C310.966,156.308 327.462,168.946 344.343,145.602C346.488,142.636 348.012,139.878 349.006,137.377C349.179,136.941 348.318,136.506 348.479,136.092C354.401,120.812 339.952,116.34 327.143,134.002Z"/>
        </g>
    </g>
</svg>
