<?xml version="1.0" encoding="UTF-8" standalone="no"?>
<!DOCTYPE svg PUBLIC "-//W3C//DTD SVG 1.1//EN" "http://www.w3.org/Graphics/SVG/1.1/DTD/svg11.dtd">
<svg width="100%" height="100%" viewBox="0 0 512 256" version="1.1" xmlns="http://www.w3.org/2000/svg" xmlns:xlink="http://www.w3.org/1999/xlink" xml:space="preserve" xmlns:serif="http://www.serif.com/" style="fill-rule:evenodd;clip-rule:evenodd;stroke-linejoin:round;stroke-miterlimit:2;">
    <g id="Ebene1" transform="matrix(1.05842,0,0,1.05842,-11.6365,-6.27284)">
        <path d="M12.072,81.963L493.167,81.963C493.167,81.963 485.749,88.062 482.54,91.112C479.194,94.292 473.09,101.043 473.09,101.043L453.311,116.211C453.311,116.211 444.269,122.379 440.667,125.141C437.344,127.689 431.699,132.785 431.699,132.785L12.072,132.785L12.072,81.963Z"/>
        <g>
            <clipPath id="_clip1">
                <path d="M12.072,81.963L493.167,81.963C493.167,81.963 485.749,88.062 482.54,91.112C479.194,94.292 473.09,101.043 473.09,101.043L453.311,116.211C453.311,116.211 444.269,122.379 440.667,125.141C437.344,127.689 431.699,132.785 431.699,132.785L12.072,132.785L12.072,81.963Z"/>
            </clipPath>
            <g clip-path="url(#_clip1)">
                <rect x="22.871" y="89.154" width="14.5" height="37.25" style="fill:white;"/>
                <path d="M92.871,88.904L78.371,88.904L78.371,103.382L44.371,103.382L40.371,109.574L78.371,109.574L78.371,126.154L92.871,126.154L92.871,88.904Z" style="fill:white;"/>
                <path d="M97.003,126.286L97.003,89.386L156.153,89.386C166.653,89.386 171.003,95.386 171.003,101.086C171.003,106.786 165.253,114.686 156.153,114.686L115.203,114.686L118.703,108.886L147.553,108.886C152.953,108.886 155.903,103.386 155.903,101.486C155.903,99.586 152.653,94.486 147.553,94.486L112.003,94.486L112.003,126.286L97.003,126.286Z" style="fill:white;"/>
                <path d="M173.503,126.423L173.503,89.048L220.878,89.048C235.128,89.048 245.753,99.173 245.753,106.923C245.753,115.798 233.503,126.423 222.128,126.423L191.628,126.423L195.628,119.673L216.503,119.673C224.003,119.673 229.503,112.298 229.503,107.048C229.503,101.798 223.128,94.798 216.503,94.798L188.753,94.798L188.753,126.423L173.503,126.423Z" style="fill:white;"/>
                <path d="M293.97,93.369C301.37,95.969 314.17,99.969 318.37,103.369C312.17,107.569 308.37,113.969 305.77,118.569C297.97,116.969 285.37,114.769 280.37,111.169C284.97,104.569 289.77,98.969 293.97,93.369Z" style="fill:white;"/>
                <path d="M297.998,135.569C298.998,129.902 302.284,121.998 304.57,117.855C308.427,117.855 303.284,120.141 308.57,120.141C323.284,118.855 329.57,123.426 329.712,128.569C329.712,132.141 329.427,136.426 329.427,136.426C329.427,136.426 297.099,140.662 297.998,135.569Z" style="fill:white;"/>
                <path d="M341.427,75.712C335.284,87.569 328.57,95.426 321.141,101.998C332.998,98.283 347.712,101.426 350.855,108.426C351.284,113.569 344.998,117.141 343.284,121.283C346.712,126.569 350.427,130.712 353.284,133.141C359.427,129.569 367.284,120.998 369.141,115.712C364.855,111.855 357.712,110.141 354.427,105.426C357.427,102.283 359.427,100.426 359.57,94.426C359.712,88.426 344.57,79.855 341.427,75.712Z" style="fill:white;"/>
                <path d="M360.712,76.712C362.57,79.426 370.855,90.426 376.998,94.141C374.427,100.712 371.998,105.712 369.998,113.569C371.57,116.141 376.427,116.141 382.141,115.998C386.284,109.998 399.998,94.855 427.141,95.283C425.57,99.569 420.054,108.293 416.998,113.569C413.427,113.712 399.57,114.141 394.998,114.283C390.427,114.426 374.141,125.569 371.427,134.855C369.906,140.058 399.998,134.283 399.998,134.283L417.284,114.855L458.141,116.712C458.141,116.712 478.577,102.189 473.427,101.855C462.427,101.141 427.57,94.569 427.57,94.569L440.855,79.569L415.284,78.712L398.712,96.141C398.712,96.141 379.284,97.855 378.998,93.426C380.761,90.244 389.855,78.141 389.855,78.141C389.855,78.141 358.855,73.998 360.712,76.712Z" style="fill:white;"/>
            </g>
        </g>
    </g>
</svg>
