<?xml version="1.0" encoding="UTF-8" standalone="no"?>
<!DOCTYPE svg PUBLIC "-//W3C//DTD SVG 1.1//EN" "http://www.w3.org/Graphics/SVG/1.1/DTD/svg11.dtd">
<svg width="100%" height="100%" viewBox="0 0 512 256" version="1.1" xmlns="http://www.w3.org/2000/svg" xmlns:xlink="http://www.w3.org/1999/xlink" xml:space="preserve" xmlns:serif="http://www.serif.com/" style="fill-rule:evenodd;clip-rule:evenodd;stroke-linejoin:round;stroke-miterlimit:2;">
    <path d="M164.543,126.631L164.543,115.506C164.543,115.506 154.043,112.631 144.293,112.631C130.041,112.631 117.295,118.88 117.293,129.256C117.292,140.008 131.044,145.647 144.043,145.506C155.543,145.381 164.543,142.256 164.543,142.256L164.543,132.631C164.543,132.631 159.043,133.881 150.918,134.006C142.793,134.131 138.157,132.503 138.043,129.881C137.918,127.006 145.668,125.506 151.168,125.506C156.668,125.506 164.543,126.631 164.543,126.631ZM291.418,144.506L269.668,144.506L269.668,114.506L291.543,114.506L291.543,117.631C291.543,117.631 296.543,113.131 308.043,113.131L308.293,122.256C308.293,122.256 316.043,113.006 334.043,113.006C355.793,113.006 364.668,125.693 361.168,132.568L330.418,132.568C330.418,132.568 332.168,137.131 342.668,137.131C349.793,137.131 352.293,134.756 352.293,134.756L360.043,134.756C360.043,134.756 353.918,145.381 333.668,145.381C312.293,145.381 305.043,133.631 305.918,130.256L297.918,130.256L297.896,130.256C297.616,130.257 297.336,130.276 297.059,130.312C295.705,130.489 294.431,131.069 293.317,131.843C293.142,131.964 292.97,132.09 292.803,132.221C292.502,132.456 292.213,132.706 291.937,132.969C291.833,133.068 291.732,133.169 291.633,133.272C291.56,133.348 291.487,133.426 291.418,133.506L291.418,144.506ZM212.918,144.631L167.668,144.631L167.668,106.881L192.793,106.881L192.793,130.006L208.918,130.006C208.168,119.631 217.543,112.881 226.918,112.881C236.293,112.881 244.418,116.881 244.418,116.881L244.418,114.381L266.418,114.381L266.418,144.631L244.418,144.631L244.418,142.381C244.418,142.381 237.668,145.256 229.293,145.256C217.668,145.256 213.043,139.131 213.043,139.131L212.918,144.631ZM38.968,144.668L12.368,144.668L42.568,106.768L75.768,106.768L75.768,119.468L87.568,106.768L114.368,106.768L114.368,144.668L90.768,144.668L90.768,129.668L53.768,144.668L53.768,129.468L38.968,144.668ZM386.793,144.631L364.918,144.631L364.918,114.381L386.668,114.381L386.668,116.756C386.668,116.756 396.418,112.881 404.293,112.881C413.543,112.881 421.668,118.506 421.668,122.006L421.668,144.631L399.918,144.631C399.918,139.006 399.92,133.381 399.918,127.756C399.918,127.744 399.905,127.737 399.898,127.728C399.862,127.681 399.824,127.636 399.785,127.592C399.621,127.403 399.435,127.232 399.242,127.073C398.518,126.475 397.661,126.049 396.771,125.762C395.542,125.365 394.242,125.231 392.956,125.26C391.712,125.287 390.458,125.464 389.286,125.895C388.652,126.128 388.04,126.436 387.498,126.843C387.245,127.034 386.984,127.249 386.793,127.506L386.793,144.631ZM372.793,106.881C432.543,73.881 490.041,62.91 500.918,76.631C507.438,84.855 493.168,105.631 440.418,138.506C451.168,122.881 454.309,111.865 447.668,105.506C439.111,97.311 413.168,95.506 372.793,106.881ZM238.418,124.131C244.337,123.915 246.139,127.814 246.293,129.881C246.47,132.249 243.293,136.256 238.793,136.256C234.293,136.256 230.981,132.959 230.981,130.443C230.981,127.928 233.377,124.315 238.418,124.131ZM329.918,125.131L343.043,125.131C343.043,125.131 343.418,120.381 336.668,120.381C329.918,120.381 329.918,125.131 329.918,125.131Z"/>
</svg>
