<?xml version="1.0" encoding="UTF-8" standalone="no"?>
<!DOCTYPE svg PUBLIC "-//W3C//DTD SVG 1.1//EN" "http://www.w3.org/Graphics/SVG/1.1/DTD/svg11.dtd">
<svg width="100%" height="100%" viewBox="0 0 2048 2048" version="1.1" xmlns="http://www.w3.org/2000/svg" xmlns:xlink="http://www.w3.org/1999/xlink" xml:space="preserve" xmlns:serif="http://www.serif.com/" style="fill-rule:evenodd;clip-rule:evenodd;stroke-linejoin:round;stroke-miterlimit:2;">
    <g transform="matrix(0.922374,0,0,0.922374,100.242,12.6164)">
        <circle cx="1001.5" cy="1096.5" r="1095" style="fill:rgb(14,37,106);"/>
        <clipPath id="_clip1">
            <circle cx="1001.5" cy="1096.5" r="1095"/>
        </clipPath>
        <g clip-path="url(#_clip1)">
            <g transform="matrix(0.94636,0,0,0.94636,52.5216,60.0148)">
                <circle cx="1001.5" cy="1096.5" r="1095" style="fill:rgb(254,255,254);"/>
                <clipPath id="_clip2">
                    <circle cx="1001.5" cy="1096.5" r="1095"/>
                </clipPath>
                <g clip-path="url(#_clip2)">
                    <g transform="matrix(0.942163,0,0,0.941006,59.1903,60.8866)">
                        <circle cx="1001.5" cy="1096.5" r="1095" style="fill:none;"/>
                        <clipPath id="_clip3">
                            <circle cx="1001.5" cy="1096.5" r="1095"/>
                        </clipPath>
                        <g clip-path="url(#_clip3)">
                            <g transform="matrix(1.34604,0,0,1.34604,-383.571,-280.494)">
                                <path d="M423,1566.67C492.111,1381.11 570.194,1185.9 700.333,1008C810.134,857.904 942.833,753.705 1033.67,709.333C1123.08,665.655 1257.08,646.173 1355,661.333C1463.1,678.07 1586.01,738.823 1633.67,769.333C1688.33,804.333 1772.33,864 1839,926.667C1905.67,989.333 2095,1132 2095,1132L2061.67,1336C2061.67,1336 1893.11,1240.58 1832.33,1178.67C1760.67,1105.67 1699.67,1046 1637.67,997.333C1580.33,952.324 1477.67,892 1411,880C1344.33,868 1303.26,871.216 1255,893.333C1199,919 1143.46,981.169 1109.67,1042.67C1076.87,1102.35 1039.44,1198.02 1019.67,1284C999.286,1372.63 980.333,1488 972.333,1569.33C964.333,1650.67 957.667,1756 959,1834.67C960.333,1913.33 957.667,1988 957.667,1988L241.667,1909.33C241.667,1909.33 362.556,1680.89 423,1566.67" style="fill:rgb(43,120,197);"/>
                            </g>
                            <g transform="matrix(1.34604,0,0,1.34604,-383.571,-280.494)">
                                <path d="M179.333,1524.33C179.333,1524.33 244.397,1380.95 272.255,1321.9C370.699,1113.23 549.333,871.333 712,751.333C838.851,657.755 978.701,597.031 1108,584.667C1309.75,565.375 1468.52,623.168 1601.67,697.667C1665.1,733.16 1758.33,791.667 1827,849.333C1913.83,922.254 2133.33,1066 2133.33,1066L2213.33,92.667L1026.67,-96.667L-154.667,-92.667L-160,1246L-73.333,1534L179.333,1524.33Z" style="fill:rgb(199,13,10);"/>
                            </g>
                            <g transform="matrix(1.34438,0,0,1.34604,-383.215,-280.494)">
                                <path d="M1318.05,1784.08C1275.83,1587.17 1261.98,1400.08 1256.83,1294.17C1251.83,1191.17 1259.05,1113.58 1275.83,1062.17C1291.83,1013.17 1305.83,978.167 1339.83,957.167C1373.83,936.167 1400.92,936.61 1433.83,942.167C1459.5,946.5 1501.1,965.339 1522.83,978.167C1543.17,990.167 1611.5,1037.17 1671.83,1092.17C1731.4,1146.47 1775.83,1197.5 1815.83,1243.17C1853.64,1286.33 2042.83,1520.17 2042.83,1520.17L1366.83,2011.17C1366.83,2011.17 1358.53,1972.95 1318.05,1784.08Z" style="fill:rgb(43,120,197);"/>
                            </g>
                        </g>
                    </g>
                </g>
            </g>
        </g>
    </g>
</svg>
